<svg width="813" height="632" viewBox="0 0 813 632" fill="none" xmlns="http://www.w3.org/2000/svg">
<path d="M811.261 631.146C780.801 590.6 716.694 493.291 703.946 428.417C702.769 426.669 701.122 418.372 703.946 399.168C706.77 379.964 705.122 359.16 703.946 351.159C703.071 343.829 701.585 327.315 702.634 319.892C703.683 312.469 700.987 298.913 699.508 293.063L689.22 258.166L683.471 228.21C684.043 224.512 684.197 214.049 680.243 201.785C676.29 189.52 676.377 180.739 676.915 177.881C676.646 171.729 674.595 156.075 668.544 142.681C660.979 125.938 652.91 127.451 648.977 131.385C645.043 135.318 639.395 141.571 643.228 161.643C647.061 181.714 649.279 187.362 648.069 194.22C646.859 201.079 646.052 211.568 648.069 219.234C649.683 225.366 648.742 235.035 648.069 239.103C644.741 230.732 638.084 211.548 638.084 201.785L635.562 194.22C634.588 187.967 631.609 173.181 627.494 164.063C623.379 154.945 619.055 136.394 617.408 128.258C615.222 116.39 610.287 91.3633 608.028 86.1992C605.204 79.7442 606.414 55.7395 580.493 52.6128C578.308 52.4783 573.392 54.6502 571.214 64.4134C569.035 74.1767 572.525 88.25 574.542 94.0663C575.517 96.8231 577.447 103.124 577.366 106.27C577.286 109.417 582.577 130.376 585.233 140.462C585.132 140.798 585.393 141.525 585.637 142.479C585.654 142.547 586.244 148.933 586.261 149C586.709 152.139 587.225 155.566 587.803 159.193C584.054 149.615 572.702 113.34 569.701 103.245C566.151 91.3027 560.153 69.2211 557.598 59.673C556.085 49.4189 551.566 28.1038 545.595 24.8763C543.309 22.9263 537.426 19.2483 532.181 20.1359C525.625 21.2453 518.767 27.1961 518.262 32.2391C517.758 37.2821 516.245 43.6363 519.271 57.8575C521.691 69.2346 525.524 84.1148 527.138 90.1328C528.819 95.5792 532.403 107.924 533.29 113.734C534.4 120.996 537.426 129.065 539.443 150.346C540.149 154.381 542.428 164.749 545.898 173.947C550.235 185.446 554.975 187.261 557.699 232.043C557.228 235.035 557.073 242.109 560.22 246.466C559.716 248.012 558.283 250.52 556.589 248.181C554.471 245.256 558.505 240.818 553.462 232.043C549.966 218.393 542.267 187.907 539.443 175.158C535.913 159.222 534.904 153.675 530.466 148.632C526.916 144.597 520.649 117.499 517.96 104.455C517.523 102.808 515.862 97.0316 512.715 87.107C508.781 74.7012 504.747 57.8575 489.315 57.8575C476.97 57.8575 473.615 67.4729 473.48 72.2805C472.741 76.3486 472.27 87.9542 476.304 101.833C481.347 119.18 485.483 132.191 485.785 138.848C486.088 145.505 487.5 148.329 488.912 165.274C490.042 178.829 496.376 196.473 499.401 203.6C502.427 216.073 508.237 242.653 507.268 249.189C508.075 254.972 509.205 269.724 507.268 282.473C506.798 289.231 505.998 302.988 506.562 303.956C507.268 305.166 506.058 321.102 504.848 321.001C503.88 320.921 502.158 316.665 501.419 314.546C499.939 311.218 496.597 304.218 495.064 302.847C495.468 301.098 495.246 296.553 491.131 292.357C491.299 289.634 490.566 283.502 486.29 280.758C486.424 279.212 484.716 273.557 476.809 263.31L476.738 263.219C466.872 250.432 455.799 236.083 443.021 238.498C430.211 240.919 426.379 249.088 427.387 252.215C428.396 255.342 440.499 274.001 440.499 278.237C440.499 282.473 438.684 282.574 443.727 294.274C444.668 296.862 446.49 302.948 446.248 306.579C446.006 310.209 451.325 318.514 454.014 322.212C456.906 328.465 463.273 341.799 465.613 345.107C468.538 349.242 474.186 364.27 474.691 368.103C475.195 371.936 478.019 389.183 487.802 404.615C495.629 416.96 510.698 445.53 517.254 458.272C519.741 463.584 528.489 476.346 543.578 484.899C551.378 486.681 569.882 498.878 581.501 533.413L628.2 631.146H811.261Z" fill="url(#paint0_linear_681_313)"/>
<path d="M586.261 149C586.244 148.933 585.654 142.547 585.637 142.479C585.393 141.525 585.132 140.798 585.233 140.462C582.577 130.376 577.286 109.417 577.366 106.27C577.447 103.124 575.517 96.8231 574.542 94.0663C572.525 88.25 569.035 74.1767 571.214 64.4134C573.392 54.6502 578.308 52.4783 580.493 52.6128C606.414 55.7395 605.204 79.7442 608.028 86.1992C610.287 91.3632 615.222 116.39 617.408 128.258C619.055 136.394 623.379 154.945 627.494 164.063C631.609 173.181 634.588 187.967 635.562 194.22L638.084 201.785C638.084 211.548 644.741 230.732 648.069 239.103C648.742 235.035 649.683 225.366 648.069 219.234C646.052 211.568 646.859 201.079 648.069 194.22C649.279 187.362 647.061 181.714 643.228 161.643C639.395 141.571 645.043 135.318 648.977 131.385C652.91 127.451 660.979 125.938 668.544 142.681C674.595 156.075 676.646 171.729 676.915 177.881C676.377 180.739 676.29 189.52 680.243 201.785C684.197 214.049 684.043 224.512 683.471 228.21L689.22 258.166L699.508 293.063C700.987 298.913 703.683 312.469 702.634 319.892C701.585 327.315 703.071 343.829 703.946 351.159C705.122 359.16 706.77 379.964 703.946 399.168C701.122 418.372 702.769 426.669 703.946 428.417C716.694 493.291 780.801 590.6 811.261 631.146H628.2L581.501 533.413C569.882 498.878 551.378 486.681 543.578 484.899C528.489 476.346 519.741 463.584 517.254 458.272C510.698 445.53 495.629 416.96 487.802 404.615C478.019 389.183 475.195 371.936 474.691 368.103C474.186 364.27 468.538 349.242 465.613 345.107C463.273 341.799 456.906 328.465 454.014 322.212C451.325 318.514 446.006 310.209 446.248 306.579C446.49 302.948 444.668 296.862 443.727 294.274C438.684 282.574 440.499 282.473 440.499 278.237C440.499 274.001 428.396 255.342 427.387 252.215C426.379 249.088 430.211 240.919 443.021 238.498C455.83 236.077 466.924 250.5 476.809 263.31C484.716 273.557 486.424 279.212 486.29 280.758C490.566 283.502 491.299 289.634 491.131 292.357C495.246 296.553 495.468 301.098 495.064 302.847C496.597 304.218 499.939 311.218 501.419 314.546C502.158 316.665 503.88 320.921 504.848 321.001C506.058 321.102 507.268 305.166 506.562 303.956C505.998 302.988 506.798 289.231 507.268 282.473C509.205 269.724 508.075 254.972 507.268 249.189C508.237 242.653 502.427 216.073 499.401 203.6C496.376 196.473 490.042 178.829 488.912 165.274C487.5 148.329 486.088 145.505 485.785 138.848C485.483 132.191 481.347 119.18 476.304 101.833C472.27 87.9542 472.741 76.3486 473.48 72.2805C473.615 67.4729 476.97 57.8575 489.315 57.8575C504.747 57.8575 508.781 74.7012 512.715 87.107C515.862 97.0316 517.523 102.808 517.96 104.455C520.649 117.499 526.916 144.597 530.466 148.632C534.904 153.675 535.913 159.222 539.443 175.158C542.267 187.907 549.966 218.393 553.462 232.043C558.505 240.818 554.471 245.256 556.589 248.181C558.283 250.52 559.716 248.012 560.22 246.466C557.073 242.109 557.228 235.035 557.699 232.043C554.975 187.261 550.235 185.446 545.898 173.947C542.428 164.749 540.149 154.381 539.443 150.346C537.426 129.065 534.4 120.996 533.29 113.734C532.403 107.924 528.819 95.5792 527.138 90.1328C525.524 84.1148 521.691 69.2346 519.271 57.8575C516.245 43.6363 517.758 37.2821 518.262 32.2391C518.767 27.1961 525.625 21.2453 532.181 20.1359C537.426 19.2483 543.309 22.9263 545.595 24.8763C551.566 28.1038 556.085 49.4189 557.598 59.673C560.153 69.2211 566.151 91.3027 569.701 103.245C574.131 118.148 596.761 190.105 586.261 149ZM586.261 149C590.452 178.368 600.661 232.928 610.261 241.5" stroke="black" stroke-opacity="0.6" stroke-width="1.25912"/>
<path d="M613.468 481.143C629.283 490.099 628.126 495.431 625.571 496.978C622.989 514.164 645.272 537.423 656.737 546.904C664.563 545.613 667.125 549.795 667.428 552.047C686.289 576.456 681.548 587.147 684.171 597.434C686.269 605.665 682.221 623.053 679.935 630.718H712.008C717.757 590.576 703.637 565.764 696.274 554.872C690.384 546.157 681.044 524.546 677.11 514.83C643.827 483.866 634.548 491.834 631.522 491.834C629.101 491.834 624.932 486.858 623.15 484.37C624.441 474.284 617.233 471.494 613.468 471.359C619.842 477.492 619.687 480.437 618.813 481.143C614.537 479.852 613.468 480.605 613.468 481.143Z" fill="#3C4244" stroke="#535B5E" stroke-width="0.629562"/>
<path d="M750.617 610.018C728.033 601.658 723.667 620.335 724.307 630.718H744.792C744.894 627.905 746.627 626.464 747.48 626.096C752.806 622.398 759.814 627.637 762.652 630.718H777.503C769.821 618.539 756.378 611.844 750.617 610.018Z" fill="#3C4244" stroke="#535B5E" stroke-width="0.629562"/>
<path d="M494.344 97.8856C484.875 100.423 481.238 96.3162 480.603 93.9459C480.247 93.0468 465.161 45.3965 479.906 41.4447C495.26 37.3297 504.205 79.6682 505.233 87.3462C506.105 93.8551 497.677 97.103 494.344 97.8856Z" fill="#D32F2F"/>
<path d="M451.852 272.634C444.131 277.396 439.721 274.565 438.481 272.555C437.909 271.822 410.918 232 422.942 224.584C435.464 216.862 452.46 250.179 455.559 256.956C458.186 262.702 454.602 271.06 451.852 272.634Z" fill="#D32F2F"/>
<path d="M539.344 59.8856C529.875 62.4226 526.238 58.3162 525.603 55.9459C525.247 55.0468 510.161 7.39652 524.906 3.44472C540.26 -0.670257 549.205 41.6682 550.233 49.3462C551.105 55.8551 542.677 59.103 539.344 59.8856Z" fill="#D32F2F"/>
<path d="M589.718 88.0812C581.168 90.3723 577.883 86.6639 577.31 84.5233C576.989 83.7114 563.364 40.6798 576.68 37.111C590.546 33.3949 598.624 71.6296 599.553 78.5634C600.34 84.4413 592.728 87.3744 589.718 88.0812Z" fill="#D32F2F"/>
<path d="M659.453 156.363C653.522 157.952 651.225 155.308 650.817 153.787C650.591 153.21 640.945 122.633 650.181 120.158C659.799 117.58 665.571 144.732 666.245 149.654C666.817 153.826 661.541 155.874 659.453 156.363Z" fill="#D32F2F"/>
<path d="M1.26074 631.146C31.7205 590.6 95.8271 493.291 108.576 428.417C109.753 426.669 111.4 418.372 108.576 399.168C105.752 379.964 107.399 359.16 108.576 351.159C109.45 343.829 110.936 327.315 109.887 319.892C108.838 312.469 111.534 298.913 113.014 293.063L123.301 258.166L129.05 228.21C128.479 224.512 128.324 214.049 132.278 201.785C136.232 189.52 136.144 180.739 135.606 177.881C135.875 171.729 137.926 156.075 143.978 142.681C151.542 125.938 159.611 127.451 163.545 131.385C167.478 135.318 173.126 141.571 169.294 161.643C165.461 181.714 163.242 187.362 164.452 194.22C165.663 201.079 166.47 211.568 164.452 219.234C162.839 225.366 163.78 235.035 164.452 239.103C167.781 230.732 174.438 211.548 174.438 201.785L176.959 194.22C177.934 187.967 180.913 173.181 185.028 164.063C189.143 154.945 193.466 136.394 195.114 128.258C197.299 116.39 202.235 91.3633 204.494 86.1992C207.318 79.7442 206.108 55.7395 232.029 52.6128C234.214 52.4783 239.129 54.6502 241.308 64.4134C243.486 74.1767 239.997 88.25 237.979 94.0663C237.004 96.8231 235.075 103.124 235.155 106.27C235.236 109.417 229.944 130.376 227.288 140.462C227.389 140.798 227.129 141.525 226.885 142.479C226.867 142.547 226.278 148.933 226.261 149C225.813 152.139 225.296 155.566 224.719 159.193C228.467 149.615 239.819 113.34 242.821 103.245C246.371 91.3027 252.369 69.2211 254.924 59.673C256.437 49.4189 260.955 28.1038 266.926 24.8763C269.212 22.9263 275.096 19.2483 280.341 20.1359C286.896 21.2453 293.755 27.1961 294.259 32.2391C294.764 37.2821 296.276 43.6363 293.251 57.8575C290.83 69.2346 286.997 84.1148 285.384 90.1328C283.703 95.5792 280.119 107.924 279.231 113.734C278.122 120.996 275.096 129.065 273.079 150.346C272.373 154.381 270.093 164.749 266.624 173.947C262.287 185.446 257.546 187.261 254.823 232.043C255.294 235.035 255.448 242.109 252.301 246.466C252.806 248.012 254.238 250.52 255.932 248.181C258.051 245.256 254.016 240.818 259.059 232.043C262.556 218.393 270.255 187.907 273.079 175.158C276.609 159.222 277.617 153.675 282.055 148.632C285.605 144.597 291.872 117.499 294.562 104.455C294.999 102.808 296.66 97.0316 299.807 87.107C303.74 74.7012 307.775 57.8575 323.206 57.8575C335.551 57.8575 338.907 67.4729 339.041 72.2805C339.781 76.3486 340.251 87.9542 336.217 101.833C331.174 119.18 327.039 132.191 326.736 138.848C326.434 145.505 325.022 148.329 323.61 165.274C322.48 178.829 316.146 196.473 313.12 203.6C310.094 216.073 304.285 242.653 305.253 249.189C304.446 254.972 303.316 269.724 305.253 282.473C305.724 289.231 306.524 302.988 305.959 303.956C305.253 305.166 306.463 321.102 307.674 321.001C308.642 320.921 310.363 316.665 311.103 314.546C312.582 311.218 315.924 304.218 317.457 302.847C317.054 301.098 317.276 296.553 321.391 292.357C321.223 289.634 321.955 283.502 326.232 280.758C326.097 279.212 327.805 273.557 335.713 263.31L335.783 263.219C345.65 250.432 356.722 236.083 369.501 238.498C382.31 240.919 386.143 249.088 385.134 252.215C384.126 255.342 372.022 274.001 372.022 278.237C372.022 282.473 373.838 282.574 368.795 294.274C367.854 296.862 366.031 302.948 366.273 306.579C366.515 310.209 361.197 318.514 358.507 322.212C355.616 328.465 349.248 341.799 346.908 345.107C343.983 349.242 338.335 364.27 337.831 368.103C337.327 371.936 334.502 389.183 324.719 404.615C316.892 416.96 301.824 445.53 295.268 458.272C292.78 463.584 284.032 476.346 268.943 484.899C261.144 486.681 242.639 498.878 231.02 533.413L184.322 631.146H1.26074Z" fill="url(#paint1_linear_681_313)"/>
<path d="M226.261 149C226.278 148.933 226.867 142.547 226.885 142.479C227.129 141.525 227.389 140.798 227.288 140.462C229.944 130.376 235.236 109.417 235.155 106.27C235.075 103.124 237.004 96.8231 237.979 94.0663C239.997 88.25 243.486 74.1767 241.308 64.4134C239.129 54.6502 234.214 52.4783 232.029 52.6128C206.108 55.7395 207.318 79.7442 204.494 86.1992C202.235 91.3632 197.299 116.39 195.114 128.258C193.466 136.394 189.143 154.945 185.028 164.063C180.913 173.181 177.934 187.967 176.959 194.22L174.438 201.785C174.438 211.548 167.781 230.732 164.452 239.103C163.78 235.035 162.839 225.366 164.452 219.234C166.47 211.568 165.663 201.079 164.452 194.22C163.242 187.362 165.461 181.714 169.294 161.643C173.126 141.571 167.478 135.318 163.545 131.385C159.611 127.451 151.542 125.938 143.978 142.681C137.926 156.075 135.875 171.729 135.606 177.881C136.144 180.739 136.232 189.52 132.278 201.785C128.324 214.049 128.479 224.512 129.05 228.21L123.301 258.166L113.014 293.063C111.534 298.913 108.838 312.469 109.887 319.892C110.936 327.315 109.45 343.829 108.576 351.159C107.399 359.16 105.752 379.964 108.576 399.168C111.4 418.372 109.753 426.669 108.576 428.417C95.8272 493.291 31.7205 590.6 1.26074 631.146H184.322L231.02 533.413C242.639 498.878 261.144 486.681 268.943 484.899C284.032 476.346 292.78 463.584 295.268 458.272C301.824 445.53 316.892 416.96 324.719 404.615C334.502 389.183 337.327 371.936 337.831 368.103C338.335 364.27 343.983 349.242 346.908 345.107C349.248 341.799 355.616 328.465 358.507 322.212C361.197 318.514 366.515 310.209 366.273 306.579C366.031 302.948 367.854 296.862 368.795 294.274C373.838 282.574 372.022 282.473 372.022 278.237C372.022 274.001 384.126 255.342 385.134 252.215C386.143 249.088 382.31 240.919 369.501 238.498C356.692 236.077 345.597 250.5 335.713 263.31C327.805 273.557 326.097 279.212 326.232 280.758C321.955 283.502 321.223 289.634 321.391 292.357C317.276 296.553 317.054 301.098 317.457 302.847C315.924 304.218 312.582 311.218 311.103 314.546C310.363 316.665 308.642 320.921 307.674 321.001C306.463 321.102 305.253 305.166 305.959 303.956C306.524 302.988 305.724 289.231 305.253 282.473C303.317 269.724 304.446 254.972 305.253 249.189C304.285 242.653 310.094 216.073 313.12 203.6C316.146 196.473 322.48 178.829 323.61 165.274C325.022 148.329 326.434 145.505 326.736 138.848C327.039 132.191 331.174 119.18 336.217 101.833C340.251 87.9542 339.781 76.3486 339.041 72.2805C338.907 67.4729 335.551 57.8575 323.206 57.8575C307.775 57.8575 303.74 74.7012 299.807 87.107C296.66 97.0316 294.999 102.808 294.562 104.455C291.872 117.499 285.605 144.597 282.055 148.632C277.617 153.675 276.609 159.222 273.079 175.158C270.255 187.907 262.556 218.393 259.059 232.043C254.016 240.818 258.051 245.256 255.932 248.181C254.238 250.52 252.806 248.012 252.301 246.466C255.448 242.109 255.294 235.035 254.823 232.043C257.546 187.261 262.287 185.446 266.624 173.947C270.093 164.749 272.373 154.381 273.079 150.346C275.096 129.065 278.122 120.996 279.231 113.734C280.119 107.924 283.703 95.5792 285.384 90.1328C286.997 84.1148 290.83 69.2346 293.251 57.8575C296.276 43.6363 294.764 37.2821 294.259 32.2391C293.755 27.1961 286.896 21.2453 280.341 20.1359C275.096 19.2483 269.212 22.9263 266.926 24.8763C260.955 28.1038 256.437 49.4189 254.924 59.673C252.369 69.2211 246.371 91.3027 242.821 103.245C238.39 118.148 215.76 190.105 226.261 149ZM226.261 149C222.07 178.368 211.861 232.928 202.261 241.5" stroke="black" stroke-opacity="0.6" stroke-width="1.25912"/>
<path d="M318.178 97.8856C327.646 100.423 331.283 96.3162 331.919 93.9459C332.274 93.0468 347.361 45.3965 332.615 41.4447C317.261 37.3297 308.317 79.6682 307.288 87.3462C306.417 93.8551 314.845 97.103 318.178 97.8856Z" fill="#D32F2F"/>
<path d="M360.669 272.634C368.391 277.396 372.801 274.565 374.041 272.555C374.613 271.822 401.604 232 389.579 224.584C377.058 216.862 360.061 250.179 356.963 256.956C354.336 262.702 357.92 271.06 360.669 272.634Z" fill="#D32F2F"/>
<path d="M273.178 59.8856C282.646 62.4226 286.283 58.3162 286.919 55.9459C287.274 55.0468 302.361 7.39652 287.615 3.44472C272.261 -0.670257 263.317 41.6682 262.288 49.3462C261.417 55.8551 269.845 59.103 273.178 59.8856Z" fill="#D32F2F"/>
<path d="M222.803 88.0812C231.354 90.3723 234.638 86.6639 235.212 84.5233C235.533 83.7114 249.157 40.6798 235.841 37.111C221.975 33.3949 213.898 71.6296 212.969 78.5634C212.182 84.4413 219.793 87.3744 222.803 88.0812Z" fill="#D32F2F"/>
<path d="M153.068 156.363C158.999 157.952 161.297 155.308 161.704 153.787C161.931 153.21 171.576 122.633 162.34 120.158C152.723 117.58 146.951 144.732 146.276 149.654C145.705 153.826 150.98 155.874 153.068 156.363Z" fill="#D32F2F"/>
<defs>
<linearGradient id="paint0_linear_681_313" x1="619.247" y1="20" x2="776.261" y2="637.5" gradientUnits="userSpaceOnUse">
<stop stop-color="#CFC0B7"/>
<stop offset="1" stop-color="#DFCEC2"/>
</linearGradient>
<linearGradient id="paint1_linear_681_313" x1="193.274" y1="20" x2="36.2607" y2="637.5" gradientUnits="userSpaceOnUse">
<stop stop-color="#CFC0B7"/>
<stop offset="1" stop-color="#DFCEC2"/>
</linearGradient>
</defs>
</svg>
