<svg width="813" height="632" viewBox="0 0 813 632" fill="none" xmlns="http://www.w3.org/2000/svg">
<path d="M586.26 149C586.243 148.933 585.653 142.547 585.636 142.479C585.392 141.525 585.131 140.798 585.232 140.462C582.576 130.376 577.285 109.417 577.365 106.27C577.446 103.124 575.516 96.8231 574.541 94.0663C572.524 88.25 569.034 74.1767 571.213 64.4134C573.391 54.6502 578.307 52.4783 580.492 52.6128C606.413 55.7395 605.203 79.7442 608.027 86.1992C610.286 91.3632 615.221 116.39 617.407 128.258C619.054 136.394 623.378 154.945 627.493 164.063C631.608 173.181 634.587 187.967 635.562 194.22L638.083 201.785C638.083 211.548 644.74 230.732 648.068 239.103C648.741 235.035 649.682 225.366 648.068 219.234C646.051 211.568 646.858 201.079 648.068 194.22C649.278 187.362 647.06 181.714 643.227 161.643C639.394 141.571 645.042 135.318 648.976 131.385C652.909 127.451 660.978 125.938 668.543 142.681C674.594 156.075 676.645 171.729 676.914 177.881C676.376 180.739 676.289 189.52 680.243 201.785C684.196 214.049 684.042 224.512 683.47 228.21L689.219 258.166L699.507 293.063C700.986 298.913 703.682 312.469 702.633 319.892C701.585 327.315 703.071 343.829 703.945 351.159C705.121 359.16 706.769 379.964 703.945 399.168C701.121 418.372 702.768 426.669 703.945 428.417C716.693 493.291 780.8 590.6 811.26 631.146H628.199L581.501 533.413C569.881 498.878 551.377 486.681 543.577 484.899C528.488 476.346 519.741 463.584 517.253 458.272C510.697 445.53 495.628 416.96 487.801 404.615C478.018 389.183 475.194 371.936 474.69 368.103C474.185 364.27 468.537 349.242 465.612 345.107C463.272 341.799 456.905 328.465 454.013 322.212C451.324 318.514 446.005 310.209 446.247 306.579C446.489 302.948 444.667 296.862 443.726 294.274C438.683 282.574 440.498 282.473 440.498 278.237C440.498 274.001 428.395 255.342 427.386 252.215C426.378 249.088 430.21 240.919 443.02 238.498C455.829 236.077 466.923 250.5 476.808 263.31C484.715 273.557 486.423 279.212 486.289 280.758C490.565 283.502 491.298 289.634 491.13 292.357C495.245 296.553 495.467 301.098 495.063 302.847C496.596 304.218 499.938 311.218 501.418 314.546C502.157 316.665 503.879 320.921 504.847 321.001C506.057 321.102 507.267 305.166 506.561 303.956C505.997 302.988 506.797 289.231 507.267 282.473C509.204 269.724 508.074 254.972 507.267 249.189C508.236 242.653 502.426 216.073 499.4 203.6C496.375 196.473 490.041 178.829 488.911 165.274C487.499 148.329 486.087 145.505 485.784 138.848C485.482 132.191 481.346 119.18 476.303 101.833C472.269 87.9542 472.74 76.3486 473.479 72.2805C473.614 67.4729 476.969 57.8575 489.314 57.8575C504.746 57.8575 508.78 74.7012 512.714 87.107C515.861 97.0316 517.522 102.808 517.959 104.455C520.648 117.499 526.915 144.597 530.465 148.632C534.903 153.675 535.912 159.222 539.442 175.158C542.266 187.907 549.965 218.393 553.461 232.043C558.504 240.818 554.47 245.256 556.588 248.181C558.283 250.52 559.715 248.012 560.219 246.466C557.072 242.109 557.227 235.035 557.698 232.043C554.974 187.261 550.234 185.446 545.897 173.947C542.427 164.749 540.148 154.381 539.442 150.346C537.425 129.065 534.399 120.996 533.289 113.734C532.402 107.924 528.818 95.5792 527.137 90.1328C525.523 84.1148 521.69 69.2346 519.27 57.8575C516.244 43.6363 517.757 37.2821 518.261 32.2391C518.766 27.1961 525.624 21.2453 532.18 20.1359C537.425 19.2483 543.308 22.9263 545.594 24.8763C551.565 28.1038 556.084 49.4189 557.597 59.673C560.152 69.2211 566.15 91.3027 569.7 103.245C574.131 118.148 596.76 190.105 586.26 149ZM586.26 149C590.451 178.368 600.66 232.928 610.26 241.5" stroke="black" stroke-opacity="0.6" stroke-width="1.25912"/>
<path d="M613.467 481.143C629.282 490.099 628.125 495.431 625.57 496.978C622.988 514.164 645.271 537.423 656.736 546.904C664.563 545.613 667.124 549.795 667.427 552.047C686.288 576.456 681.547 587.147 684.17 597.434C686.268 605.665 682.22 623.053 679.934 630.718H712.007C717.756 590.576 703.636 565.764 696.273 554.872C690.383 546.157 681.043 524.546 677.11 514.83C643.826 483.866 634.547 491.834 631.521 491.834C629.1 491.834 624.931 486.858 623.149 484.37C624.44 474.284 617.232 471.494 613.467 471.359C619.841 477.492 619.687 480.437 618.812 481.143C614.536 479.852 613.467 480.605 613.467 481.143Z" fill="#3C4244" stroke="#535B5E" stroke-width="0.629562"/>
<path d="M750.616 610.018C728.032 601.658 723.666 620.335 724.306 630.718H744.791C744.893 627.905 746.626 626.464 747.479 626.096C752.805 622.398 759.813 627.637 762.651 630.718H777.502C769.82 618.539 756.377 611.844 750.616 610.018Z" fill="#3C4244" stroke="#535B5E" stroke-width="0.629562"/>
<path d="M226.26 149C226.277 148.933 226.866 142.547 226.884 142.479C227.128 141.525 227.388 140.798 227.287 140.462C229.943 130.376 235.235 109.417 235.154 106.27C235.074 103.124 237.003 96.8231 237.978 94.0663C239.996 88.25 243.485 74.1767 241.307 64.4134C239.128 54.6502 234.213 52.4783 232.028 52.6128C206.107 55.7395 207.317 79.7442 204.493 86.1992C202.234 91.3632 197.298 116.39 195.113 128.258C193.465 136.394 189.142 154.945 185.027 164.063C180.912 173.181 177.933 187.967 176.958 194.22L174.437 201.785C174.437 211.548 167.78 230.732 164.451 239.103C163.779 235.035 162.838 225.366 164.451 219.234C166.469 211.568 165.662 201.079 164.451 194.22C163.241 187.362 165.46 181.714 169.293 161.643C173.125 141.571 167.477 135.318 163.544 131.385C159.61 127.451 151.541 125.938 143.977 142.681C137.925 156.075 135.874 171.729 135.605 177.881C136.143 180.739 136.231 189.52 132.277 201.785C128.323 214.049 128.478 224.512 129.049 228.21L123.3 258.166L113.013 293.063C111.533 298.913 108.837 312.469 109.886 319.892C110.935 327.315 109.449 343.829 108.575 351.159C107.398 359.16 105.751 379.964 108.575 399.168C111.399 418.372 109.752 426.669 108.575 428.417C95.8262 493.291 31.7195 590.6 1.25977 631.146H184.321L231.019 533.413C242.638 498.878 261.143 486.681 268.942 484.899C284.031 476.346 292.779 463.584 295.267 458.272C301.823 445.53 316.891 416.96 324.718 404.615C334.501 389.183 337.326 371.936 337.83 368.103C338.334 364.27 343.982 349.242 346.907 345.107C349.247 341.799 355.615 328.465 358.506 322.212C361.196 318.514 366.514 310.209 366.272 306.579C366.03 302.948 367.853 296.862 368.794 294.274C373.837 282.574 372.021 282.473 372.021 278.237C372.021 274.001 384.125 255.342 385.133 252.215C386.142 249.088 382.309 240.919 369.5 238.498C356.691 236.077 345.596 250.5 335.712 263.31C327.804 273.557 326.096 279.212 326.231 280.758C321.954 283.502 321.222 289.634 321.39 292.357C317.275 296.553 317.053 301.098 317.456 302.847C315.923 304.218 312.581 311.218 311.102 314.546C310.362 316.665 308.641 320.921 307.673 321.001C306.462 321.102 305.252 305.166 305.958 303.956C306.523 302.988 305.723 289.231 305.252 282.473C303.316 269.724 304.445 254.972 305.252 249.189C304.284 242.653 310.093 216.073 313.119 203.6C316.145 196.473 322.479 178.829 323.609 165.274C325.021 148.329 326.433 145.505 326.735 138.848C327.038 132.191 331.173 119.18 336.216 101.833C340.25 87.9542 339.78 76.3486 339.04 72.2805C338.906 67.4729 335.55 57.8575 323.205 57.8575C307.774 57.8575 303.739 74.7012 299.806 87.107C296.659 97.0316 294.998 102.808 294.561 104.455C291.871 117.499 285.605 144.597 282.054 148.632C277.616 153.675 276.608 159.222 273.078 175.158C270.254 187.907 262.555 218.393 259.058 232.043C254.015 240.818 258.05 245.256 255.931 248.181C254.237 250.52 252.805 248.012 252.301 246.466C255.447 242.109 255.293 235.035 254.822 232.043C257.545 187.261 262.286 185.446 266.623 173.947C270.092 164.749 272.372 154.381 273.078 150.346C275.095 129.065 278.121 120.996 279.23 113.734C280.118 107.924 283.702 95.5792 285.383 90.1328C286.996 84.1148 290.829 69.2346 293.25 57.8575C296.275 43.6363 294.763 37.2821 294.258 32.2391C293.754 27.1961 286.896 21.2453 280.34 20.1359C275.095 19.2483 269.211 22.9263 266.925 24.8763C260.954 28.1038 256.436 49.4189 254.923 59.673C252.368 69.2211 246.37 91.3027 242.82 103.245C238.389 118.148 215.759 190.105 226.26 149ZM226.26 149C222.069 178.368 211.86 232.928 202.26 241.5" stroke="black" stroke-opacity="0.6" stroke-width="1.25912"/>
<path d="M317.285 93.1661C308.615 91.099 307.418 86.5123 307.903 84.4773C307.945 84.1012 309.539 75.1925 312.653 65.8526C315.014 58.7693 314.704 59.2415 320.716 44.8301C320.961 43.8025 327.911 45.4593 329.023 45.7244L329.025 45.725C331.064 46.211 336.807 47.5805 337.179 48.484C337.042 57.6855 336.901 62.5006 335.388 71.1435C333.924 79.5086 331.466 87.2631 330.457 89.8546C328.424 95.0777 320.291 93.9762 317.285 93.1661Z" fill="#D32F2F"/>
<path d="M360.559 273.07C353.25 267.968 355.692 259.711 356.871 258.022C357.045 257.693 359.804 253.707 366.038 246.283C370.767 240.653 370.31 240.972 381.051 229.964C381.647 229.111 387.505 233.201 388.442 233.855L388.444 233.856C390.162 235.056 395.003 238.436 395.025 239.403C391.603 247.8 389.748 252.168 385.249 259.543C380.895 266.682 375.836 272.892 373.972 274.898C370.215 278.942 363.059 274.925 360.559 273.07Z" fill="#D32F2F"/>
<path d="M271.773 57.2771C263.102 55.21 261.908 50.6139 262.394 48.5742C262.436 48.1973 264.035 39.2682 267.154 29.9062C269.519 22.8062 269.209 23.2796 275.229 8.83347C275.475 7.80349 282.425 9.46026 283.537 9.7254L283.539 9.72599C285.577 10.212 291.32 11.5814 291.692 12.4867C291.55 21.7085 291.407 26.5342 289.889 35.1969C288.421 43.5811 285.958 51.3538 284.948 53.9515C282.912 59.1871 274.778 58.0874 271.773 57.2771Z" fill="#D32F2F"/>
<path d="M220.81 86.7985C212.572 84.8344 211.465 80.3464 211.942 78.348C211.985 77.979 213.566 69.2339 216.597 60.0551C218.896 53.0941 218.597 53.5593 224.424 39.3879C224.665 38.3787 231.268 39.9529 232.324 40.2048L232.327 40.2054C234.263 40.6671 239.72 41.9684 240.068 42.8514C239.871 51.8731 239.703 56.5946 238.201 65.0785C236.747 73.2897 234.351 80.9095 233.372 83.4573C231.399 88.5923 223.665 87.571 220.81 86.7985Z" fill="#D32F2F"/>
<path d="M153.523 154.605C147.558 153.183 146.883 149.405 147.291 147.694C147.333 147.379 148.75 139.906 151.24 132.022C153.128 126.043 152.896 126.446 157.579 114.239C157.785 113.375 162.567 114.515 163.332 114.697L163.333 114.698C164.736 115.032 168.687 115.974 168.915 116.714C168.502 124.38 168.238 128.395 166.887 135.644C165.579 142.659 163.6 149.201 162.808 151.394C161.213 155.813 155.588 155.176 153.523 154.605Z" fill="#D32F2F"/>
<path d="M494.75 93.1661C503.42 91.099 504.617 86.5123 504.132 84.4773C504.09 84.1012 502.496 75.1925 499.382 65.8526C497.021 58.7693 497.331 59.2415 491.319 44.8301C491.074 43.8025 484.124 45.4593 483.012 45.7244L483.01 45.725C480.972 46.211 475.228 47.5805 474.856 48.484C474.993 57.6855 475.134 62.5006 476.647 71.1435C478.111 79.5086 480.57 87.2631 481.578 89.8546C483.611 95.0777 491.744 93.9762 494.75 93.1661Z" fill="#D32F2F"/>
<path d="M451.477 273.07C458.785 267.968 456.344 259.711 455.164 258.022C454.991 257.693 452.231 253.707 445.997 246.283C441.268 240.653 441.725 240.972 430.984 229.964C430.388 229.111 424.53 233.201 423.593 233.855L423.591 233.856C421.873 235.056 417.032 238.436 417.01 239.403C420.432 247.8 422.287 252.168 426.786 259.543C431.14 266.682 436.199 272.892 438.063 274.898C441.821 278.942 448.976 274.925 451.477 273.07Z" fill="#D32F2F"/>
<path d="M540.263 57.2771C548.933 55.21 550.128 50.6139 549.641 48.5742C549.599 48.1973 548 39.2682 544.881 29.9062C542.516 22.8062 542.826 23.2796 536.806 8.83347C536.56 7.80349 529.61 9.46026 528.498 9.7254L528.496 9.72599C526.458 10.212 520.715 11.5814 520.343 12.4867C520.485 21.7085 520.628 26.5342 522.146 35.1969C523.614 43.5811 526.077 51.3538 527.087 53.9515C529.123 59.1871 537.257 58.0874 540.263 57.2771Z" fill="#D32F2F"/>
<path d="M591.225 86.7985C599.463 84.8344 600.57 80.3464 600.093 78.348C600.05 77.979 598.469 69.2339 595.438 60.0551C593.139 53.0941 593.438 53.5593 587.611 39.3879C587.371 38.3787 580.767 39.9529 579.711 40.2048L579.708 40.2054C577.772 40.6671 572.315 41.9684 571.967 42.8514C572.164 51.8731 572.333 56.5946 573.835 65.0785C575.288 73.2897 577.685 80.9095 578.663 83.4573C580.636 88.5923 588.37 87.571 591.225 86.7985Z" fill="#D32F2F"/>
<path d="M658.512 154.605C664.477 153.183 665.152 149.405 664.745 147.694C664.702 147.379 663.285 139.906 660.795 132.022C658.907 126.043 659.139 126.446 654.456 114.239C654.25 113.375 649.468 114.515 648.703 114.697L648.702 114.698C647.3 115.032 643.348 115.974 643.12 116.714C643.533 124.38 643.797 128.395 645.148 135.644C646.456 142.659 648.435 149.201 649.227 151.394C650.822 155.813 656.447 155.176 658.512 154.605Z" fill="#D32F2F"/>
</svg>
