<svg width="813" height="634" viewBox="0 0 813 634" fill="none" xmlns="http://www.w3.org/2000/svg">
<path d="M586.26 150.412C586.243 150.345 585.653 143.959 585.636 143.891C585.392 142.937 585.131 142.21 585.232 141.874C582.576 131.788 577.285 110.829 577.365 107.682C577.446 104.536 575.516 98.2353 574.541 95.4784C572.524 89.6621 569.034 75.5888 571.213 65.8255C573.391 56.0623 578.307 53.8904 580.492 54.0249C606.413 57.1516 605.203 81.1563 608.027 87.6113C610.286 92.7754 615.221 117.802 617.407 129.67C619.054 137.806 623.378 156.358 627.493 165.475C631.608 174.593 634.587 189.379 635.562 195.632L638.083 203.197C638.083 212.96 644.74 232.144 648.068 240.515C648.741 236.447 649.682 226.778 648.068 220.646C646.051 212.98 646.858 202.491 648.068 195.632C649.278 188.774 647.06 183.126 643.227 163.055C639.394 142.984 645.042 136.73 648.976 132.797C652.909 128.863 660.978 127.35 668.543 144.093C674.594 157.487 676.645 173.141 676.914 179.293C676.376 182.151 676.289 190.932 680.243 203.197C684.196 215.462 684.042 225.924 683.47 229.622L689.219 259.578L699.507 294.475C700.986 300.325 703.682 313.881 702.633 321.304C701.585 328.727 703.071 345.242 703.945 352.571C705.121 360.572 706.769 381.376 703.945 400.58C701.121 419.784 702.768 428.081 703.945 429.83C716.693 494.703 780.8 592.013 811.26 632.558H628.199L581.501 534.825C569.881 500.29 551.377 488.093 543.577 486.311C528.488 477.758 519.741 464.996 517.253 459.684C510.697 446.942 495.628 418.372 487.801 406.027C478.018 390.595 475.194 373.348 474.69 369.515C474.185 365.683 468.537 350.654 465.612 346.519C463.272 343.211 456.905 329.877 454.013 323.624C451.324 319.926 446.005 311.622 446.247 307.991C446.489 304.36 444.667 298.274 443.726 295.686C438.683 283.986 440.498 283.885 440.498 279.649C440.498 275.413 428.395 256.754 427.386 253.627C426.378 250.5 430.21 242.331 443.02 239.91C455.829 237.489 466.923 251.912 476.808 264.722C484.715 274.969 486.423 280.624 486.289 282.17C490.565 284.914 491.298 291.046 491.13 293.769C495.245 297.965 495.467 302.511 495.063 304.259C496.596 305.63 499.938 312.63 501.418 315.959C502.157 318.077 503.879 322.333 504.847 322.414C506.057 322.514 507.267 306.579 506.561 305.368C505.997 304.4 506.797 290.643 507.267 283.885C509.204 271.136 508.074 256.384 507.267 250.601C508.236 244.065 502.426 217.485 499.4 205.012C496.375 197.885 490.041 180.241 488.911 166.686C487.499 149.741 486.087 146.917 485.784 140.26C485.482 133.604 481.346 120.593 476.303 103.245C472.269 89.3663 472.74 77.7607 473.479 73.6926C473.614 68.885 476.969 59.2697 489.314 59.2697C504.746 59.2697 508.78 76.1133 512.714 88.5191C515.861 98.4437 517.522 104.22 517.959 105.867C520.648 118.912 526.915 146.009 530.465 150.044C534.903 155.087 535.912 160.634 539.442 176.57C542.266 189.319 549.965 219.805 553.461 233.455C558.504 242.23 554.47 246.668 556.588 249.593C558.283 251.933 559.715 249.425 560.219 247.878C557.072 243.521 557.227 236.447 557.698 233.455C554.974 188.673 550.234 186.858 545.897 175.36C542.427 166.161 540.148 155.793 539.442 151.758C537.425 130.477 534.399 122.408 533.289 115.146C532.402 109.337 528.818 96.9913 527.137 91.5449C525.523 85.5269 521.69 70.6467 519.27 59.2697C516.244 45.0484 517.757 38.6942 518.261 33.6512C518.766 28.6082 525.624 22.6574 532.18 21.548C537.425 20.6604 543.308 24.3384 545.594 26.2884C551.565 29.5159 556.084 50.831 557.597 61.0851C560.152 70.6332 566.15 92.7148 569.7 104.657C574.131 119.56 596.76 191.517 586.26 150.412ZM586.26 150.412C590.451 179.78 600.66 234.34 610.26 242.912" stroke="black" stroke-opacity="0.6" stroke-width="1.25912"/>
<path d="M613.467 482.555C629.282 491.511 628.125 496.843 625.57 498.39C622.988 515.577 645.271 538.835 656.736 548.316C664.563 547.025 667.124 551.207 667.427 553.46C686.288 577.868 681.547 588.559 684.17 598.847C686.268 607.077 682.22 624.465 679.934 632.13H712.007C717.756 591.988 703.636 567.177 696.273 556.284C690.383 547.569 681.043 525.958 677.11 516.242C643.826 485.278 634.547 493.246 631.521 493.246C629.1 493.246 624.931 488.27 623.149 485.782C624.44 475.696 617.232 472.906 613.467 472.771C619.841 478.904 619.687 481.849 618.812 482.555C614.536 481.264 613.467 482.017 613.467 482.555Z" fill="#3C4244" stroke="#535B5E" stroke-width="0.629562"/>
<path d="M750.616 611.43C728.032 603.07 723.666 621.747 724.306 632.13H744.791C744.893 629.317 746.626 627.876 747.479 627.508C752.805 623.81 759.813 629.049 762.651 632.13H777.502C769.82 619.952 756.377 613.256 750.616 611.43Z" fill="#3C4244" stroke="#535B5E" stroke-width="0.629562"/>
<path d="M226.26 150.412C226.277 150.345 226.866 143.959 226.884 143.891C227.128 142.937 227.388 142.21 227.287 141.874C229.943 131.788 235.235 110.829 235.154 107.682C235.074 104.536 237.003 98.2353 237.978 95.4784C239.996 89.6621 243.485 75.5888 241.307 65.8255C239.128 56.0623 234.213 53.8904 232.028 54.0249C206.107 57.1516 207.317 81.1563 204.493 87.6113C202.234 92.7754 197.298 117.802 195.113 129.67C193.465 137.806 189.142 156.358 185.027 165.475C180.912 174.593 177.933 189.379 176.958 195.632L174.437 203.197C174.437 212.96 167.78 232.144 164.451 240.515C163.779 236.447 162.838 226.778 164.451 220.646C166.469 212.98 165.662 202.491 164.451 195.632C163.241 188.774 165.46 183.126 169.293 163.055C173.125 142.984 167.477 136.73 163.544 132.797C159.61 128.863 151.541 127.35 143.977 144.093C137.925 157.487 135.874 173.141 135.605 179.293C136.143 182.151 136.231 190.932 132.277 203.197C128.323 215.462 128.478 225.924 129.049 229.622L123.3 259.578L113.013 294.475C111.533 300.325 108.837 313.881 109.886 321.304C110.935 328.727 109.449 345.242 108.575 352.571C107.398 360.572 105.751 381.376 108.575 400.58C111.399 419.784 109.752 428.081 108.575 429.83C95.8262 494.703 31.7195 592.013 1.25977 632.558H184.321L231.019 534.825C242.638 500.29 261.143 488.093 268.942 486.311C284.031 477.758 292.779 464.996 295.267 459.684C301.823 446.942 316.891 418.372 324.718 406.027C334.501 390.595 337.326 373.348 337.83 369.515C338.334 365.683 343.982 350.654 346.907 346.519C349.247 343.211 355.615 329.877 358.506 323.624C361.196 319.926 366.514 311.622 366.272 307.991C366.03 304.36 367.853 298.274 368.794 295.686C373.837 283.986 372.021 283.885 372.021 279.649C372.021 275.413 384.125 256.754 385.133 253.627C386.142 250.5 382.309 242.331 369.5 239.91C356.691 237.489 345.596 251.912 335.712 264.722C327.804 274.969 326.096 280.624 326.231 282.17C321.954 284.914 321.222 291.046 321.39 293.769C317.275 297.965 317.053 302.511 317.456 304.259C315.923 305.63 312.581 312.63 311.102 315.959C310.362 318.077 308.641 322.333 307.673 322.414C306.462 322.514 305.252 306.579 305.958 305.368C306.523 304.4 305.723 290.643 305.252 283.885C303.316 271.136 304.445 256.384 305.252 250.601C304.284 244.065 310.093 217.485 313.119 205.012C316.145 197.885 322.479 180.241 323.609 166.686C325.021 149.741 326.433 146.917 326.735 140.26C327.038 133.604 331.173 120.593 336.216 103.245C340.25 89.3663 339.78 77.7607 339.04 73.6926C338.906 68.885 335.55 59.2697 323.205 59.2697C307.774 59.2697 303.739 76.1133 299.806 88.5191C296.659 98.4437 294.998 104.22 294.561 105.867C291.871 118.912 285.605 146.009 282.054 150.044C277.616 155.087 276.608 160.634 273.078 176.57C270.254 189.319 262.555 219.805 259.058 233.455C254.015 242.23 258.05 246.668 255.931 249.593C254.237 251.933 252.805 249.425 252.301 247.878C255.447 243.521 255.293 236.447 254.822 233.455C257.545 188.673 262.286 186.858 266.623 175.36C270.092 166.161 272.372 155.793 273.078 151.758C275.095 130.477 278.121 122.408 279.23 115.146C280.118 109.337 283.702 96.9913 285.383 91.5449C286.996 85.5269 290.829 70.6467 293.25 59.2697C296.275 45.0484 294.763 38.6942 294.258 33.6512C293.754 28.6082 286.896 22.6574 280.34 21.548C275.095 20.6604 269.211 24.3384 266.925 26.2884C260.954 29.5159 256.436 50.831 254.923 61.0851C252.368 70.6332 246.37 92.7148 242.82 104.657C238.389 119.56 215.759 191.517 226.26 150.412ZM226.26 150.412C222.069 179.78 211.86 234.34 202.26 242.912" stroke="black" stroke-opacity="0.6" stroke-width="1.25912"/>
<path d="M317.972 94.3043C309.302 92.2372 308.303 86.8178 308.888 84.3665C308.948 83.9156 310.971 73.2087 314.55 61.9169C317.264 53.3534 316.929 53.9313 323.672 36.4525C323.967 35.2146 330.917 36.8714 332.029 37.1365L332.031 37.1371C334.069 37.6231 339.813 38.9926 340.147 40.0539C339.584 51.0431 339.219 56.7968 337.291 67.1828C335.425 77.2349 332.581 86.604 331.442 89.7437C329.146 96.0718 320.973 95.1325 317.972 94.3043Z" fill="#D32F2F"/>
<path d="M357.841 272.68C350.533 267.578 353.945 257.93 355.37 255.89C355.587 255.498 358.923 250.685 366.307 241.617C371.906 234.739 371.387 235.147 383.933 221.553C384.653 220.523 390.511 224.613 391.448 225.267L391.45 225.268C393.168 226.468 398.009 229.848 397.938 230.948C393.464 240.851 391.057 246.011 385.532 254.856C380.185 263.416 374.176 270.987 371.989 273.456C367.582 278.431 360.33 274.55 357.841 272.68Z" fill="#D32F2F"/>
<path d="M272.458 58.4153C263.788 56.3482 262.791 50.9194 263.377 48.4634C263.437 48.0117 265.465 37.2844 269.049 25.9705C271.767 17.3903 271.431 17.9694 278.183 0.455849C278.479 -0.78438 285.429 0.872367 286.541 1.13751L286.543 1.1381C288.581 1.62409 294.324 2.99359 294.658 4.05662C294.09 15.0661 293.723 20.8304 291.79 31.2361C289.919 41.3073 287.071 50.6947 285.931 53.8406C283.631 60.1812 275.459 59.2437 272.458 58.4153Z" fill="#D32F2F"/>
<path d="M221.495 87.9367C213.257 85.9726 212.349 80.6519 212.925 78.2371C212.985 77.7934 214.996 67.2501 218.492 56.1195C221.144 47.6782 220.82 48.2491 227.378 31.0102C227.668 29.7908 234.272 31.365 235.328 31.6169L235.331 31.6175C237.267 32.0793 242.724 33.3805 243.034 34.4213C242.411 45.2307 242.019 50.8908 240.101 61.1178C238.245 71.016 235.464 80.2504 234.355 83.3464C232.119 89.5864 224.346 88.7273 221.495 87.9367Z" fill="#D32F2F"/>
<path d="M154.21 155.743C148.245 154.321 147.768 149.711 148.275 147.583C148.336 147.194 150.181 137.923 153.137 128.086C155.378 120.627 155.121 121.136 160.535 105.862C160.791 104.787 165.573 105.927 166.338 106.11L166.339 106.11C167.741 106.444 171.693 107.387 171.883 108.284C171.044 117.738 170.556 122.691 168.79 131.683C167.079 140.386 164.715 148.542 163.793 151.283C161.934 156.807 156.271 156.332 154.21 155.743Z" fill="#D32F2F"/>
<path d="M494.075 94.3043C502.745 92.2372 503.743 86.8178 503.159 84.3665C503.099 83.9156 501.076 73.2087 497.497 61.9169C494.783 53.3534 495.118 53.9313 488.375 36.4525C488.08 35.2146 481.13 36.8714 480.018 37.1365L480.016 37.1371C477.978 37.6231 472.234 38.9926 471.9 40.0539C472.463 51.0431 472.828 56.7968 474.756 67.1828C476.622 77.2349 479.466 86.604 480.605 89.7437C482.901 96.0718 491.073 95.1325 494.075 94.3043Z" fill="#D32F2F"/>
<path d="M454.206 272.68C461.514 267.578 458.101 257.93 456.677 255.89C456.46 255.498 453.124 250.685 445.74 241.617C440.141 234.739 440.66 235.147 428.113 221.553C427.394 220.523 421.536 224.613 420.599 225.267L420.597 225.268C418.879 226.468 414.038 229.848 414.109 230.948C418.582 240.851 420.99 246.011 426.514 254.856C431.862 263.416 437.871 270.987 440.058 273.456C444.465 278.431 451.717 274.55 454.206 272.68Z" fill="#D32F2F"/>
<path d="M539.589 58.4153C548.259 56.3482 549.256 50.9194 548.67 48.4634C548.61 48.0117 546.582 37.2844 542.998 25.9705C540.28 17.3903 540.615 17.9694 533.864 0.455849C533.568 -0.78438 526.618 0.872367 525.506 1.13751L525.504 1.1381C523.466 1.62409 517.723 2.99359 517.389 4.05662C517.956 15.0661 518.324 20.8304 520.257 31.2361C522.128 41.3073 524.975 50.6947 526.116 53.8406C528.415 60.1812 536.588 59.2437 539.589 58.4153Z" fill="#D32F2F"/>
<path d="M590.552 87.9367C598.79 85.9726 599.698 80.6519 599.122 78.2371C599.061 77.7934 597.051 67.2501 593.555 56.1195C590.903 47.6782 591.227 48.2491 584.669 31.0102C584.378 29.7908 577.775 31.365 576.719 31.6169L576.716 31.6175C574.78 32.0793 569.323 33.3805 569.013 34.4213C569.635 45.2307 570.028 50.8908 571.946 61.1178C573.802 71.016 576.583 80.2504 577.692 83.3464C579.928 89.5864 587.701 88.7273 590.552 87.9367Z" fill="#D32F2F"/>
<path d="M657.837 155.743C663.802 154.321 664.279 149.711 663.771 147.583C663.711 147.194 661.865 137.923 658.91 128.086C656.669 120.627 656.926 121.136 651.512 105.862C651.256 104.787 646.474 105.927 645.709 106.11L645.708 106.11C644.305 106.444 640.354 107.387 640.164 108.284C641.003 117.738 641.49 122.691 643.257 131.683C644.967 140.386 647.332 148.542 648.254 151.283C650.113 156.807 655.776 156.332 657.837 155.743Z" fill="#D32F2F"/>
</svg>
