<svg width="813" height="638" viewBox="0 0 813 638" fill="none" xmlns="http://www.w3.org/2000/svg">
<path d="M586.26 155.067C586.243 155 585.653 148.614 585.636 148.547C585.392 147.592 585.131 146.866 585.232 146.529C582.576 136.443 577.285 115.485 577.365 112.338C577.446 109.191 575.516 102.891 574.541 100.134C572.524 94.3174 569.034 80.2441 571.213 70.4808C573.391 60.7176 578.307 58.5457 580.492 58.6802C606.413 61.8068 605.203 85.8115 608.027 92.2666C610.286 97.4306 615.221 122.457 617.407 134.325C619.054 142.461 623.378 161.013 627.493 170.131C631.608 179.248 634.587 194.034 635.562 200.288L638.083 207.852C638.083 217.615 644.74 236.799 648.068 245.171C648.741 241.102 649.682 231.433 648.068 225.301C646.051 217.636 646.858 207.146 648.068 200.288C649.278 193.429 647.06 187.781 643.227 167.71C639.394 147.639 645.042 141.385 648.976 137.452C652.909 133.518 660.978 132.005 668.543 148.748C674.594 162.142 676.645 177.796 676.914 183.948C676.376 186.806 676.289 195.588 680.243 207.852C684.196 220.117 684.042 230.579 683.47 234.278L689.219 264.233L699.507 299.131C700.986 304.981 703.682 318.536 702.633 325.959C701.585 333.383 703.071 349.897 703.945 357.226C705.121 365.228 706.769 386.032 703.945 405.235C701.121 424.439 702.768 432.737 703.945 434.485C716.693 499.358 780.8 596.668 811.26 637.214H628.199L581.501 539.48C569.881 504.946 551.377 492.748 543.577 490.967C528.488 482.414 519.741 469.651 517.253 464.339C510.697 451.597 495.628 423.027 487.801 410.682C478.018 395.25 475.194 378.003 474.69 374.171C474.185 370.338 468.537 355.31 465.612 351.174C463.272 347.866 456.905 334.533 454.013 328.279C451.324 324.581 446.005 316.277 446.247 312.646C446.489 309.015 444.667 302.93 443.726 300.341C438.683 288.641 440.498 288.54 440.498 284.304C440.498 280.068 428.395 261.409 427.386 258.282C426.378 255.156 430.21 246.986 443.02 244.565C455.829 242.145 466.923 256.568 476.808 269.377C484.715 279.624 486.423 285.279 486.289 286.826C490.565 289.569 491.298 295.701 491.13 298.425C495.245 302.62 495.467 307.166 495.063 308.914C496.596 310.286 499.938 317.285 501.418 320.614C502.157 322.732 503.879 326.988 504.847 327.069C506.057 327.17 507.267 311.234 506.561 310.024C505.997 309.055 506.797 295.298 507.267 288.54C509.204 275.792 508.074 261.039 507.267 255.257C508.236 248.721 502.426 222.141 499.4 209.668C496.375 202.54 490.041 184.897 488.911 171.341C487.499 154.396 486.087 151.572 485.784 144.916C485.482 138.259 481.346 125.248 476.303 107.9C472.269 94.0216 472.74 82.4159 473.479 78.3479C473.614 73.5403 476.969 63.9249 489.314 63.9249C504.746 63.9249 508.78 80.7686 512.714 93.1744C515.861 103.099 517.522 108.875 517.959 110.522C520.648 123.567 526.915 150.665 530.465 154.699C534.903 159.742 535.912 165.289 539.442 181.225C542.266 193.974 549.965 224.461 553.461 238.11C558.504 246.885 554.47 251.323 556.588 254.248C558.283 256.588 559.715 254.08 560.219 252.533C557.072 248.176 557.227 241.102 557.698 238.11C554.974 193.328 550.234 191.513 545.897 180.015C542.427 170.816 540.148 160.448 539.442 156.414C537.425 135.132 534.399 127.063 533.289 119.801C532.402 113.992 528.818 101.647 527.137 96.2002C525.523 90.1822 521.69 75.3019 519.27 63.9249C516.244 49.7037 517.757 43.3495 518.261 38.3065C518.766 33.2635 525.624 27.3127 532.18 26.2032C537.425 25.3157 543.308 28.9937 545.594 30.9437C551.565 34.1712 556.084 55.4863 557.597 65.7404C560.152 75.2885 566.15 97.3701 569.7 109.312C574.131 124.215 596.76 196.173 586.26 155.067ZM586.26 155.067C590.451 184.435 600.66 238.995 610.26 247.567" stroke="black" stroke-opacity="0.6" stroke-width="1.25912"/>
<path d="M613.467 487.21C629.282 496.167 628.125 501.499 625.57 503.045C622.988 520.232 645.271 543.49 656.736 552.971C664.563 551.68 667.124 555.862 667.427 558.115C686.288 582.523 681.547 593.214 684.17 603.502C686.268 611.732 682.22 629.12 679.934 636.786H712.007C717.756 596.643 703.636 571.832 696.273 560.939C690.383 552.225 681.043 530.614 677.11 520.897C643.826 489.933 634.547 497.901 631.521 497.901C629.1 497.901 624.931 492.926 623.149 490.438C624.44 480.352 617.232 477.561 613.467 477.427C619.841 483.559 619.687 486.504 618.812 487.21C614.536 485.919 613.467 486.672 613.467 487.21Z" fill="#3C4244" stroke="#535B5E" stroke-width="0.629562"/>
<path d="M750.616 616.086C728.032 607.725 723.666 626.402 724.306 636.786H744.791C744.893 633.972 746.626 632.532 747.479 632.163C752.805 628.465 759.813 633.704 762.651 636.786H777.502C769.82 624.607 756.377 617.911 750.616 616.086Z" fill="#3C4244" stroke="#535B5E" stroke-width="0.629562"/>
<path d="M226.26 155.067C226.277 155 226.866 148.614 226.884 148.547C227.128 147.592 227.388 146.866 227.287 146.529C229.943 136.443 235.235 115.485 235.154 112.338C235.074 109.191 237.003 102.891 237.978 100.134C239.996 94.3174 243.485 80.2441 241.307 70.4808C239.128 60.7176 234.213 58.5457 232.028 58.6802C206.107 61.8068 207.317 85.8115 204.493 92.2666C202.234 97.4306 197.298 122.457 195.113 134.325C193.465 142.461 189.142 161.013 185.027 170.131C180.912 179.248 177.933 194.034 176.958 200.288L174.437 207.852C174.437 217.615 167.78 236.799 164.451 245.171C163.779 241.102 162.838 231.433 164.451 225.301C166.469 217.636 165.662 207.146 164.451 200.288C163.241 193.429 165.46 187.781 169.293 167.71C173.125 147.639 167.477 141.385 163.544 137.452C159.61 133.518 151.541 132.005 143.977 148.748C137.925 162.142 135.874 177.796 135.605 183.948C136.143 186.806 136.231 195.588 132.277 207.852C128.323 220.117 128.478 230.579 129.049 234.278L123.3 264.233L113.013 299.131C111.533 304.981 108.837 318.536 109.886 325.959C110.935 333.383 109.449 349.897 108.575 357.226C107.398 365.228 105.751 386.032 108.575 405.235C111.399 424.439 109.752 432.737 108.575 434.485C95.8262 499.358 31.7195 596.668 1.25977 637.214H184.321L231.019 539.48C242.638 504.946 261.143 492.748 268.942 490.967C284.031 482.414 292.779 469.651 295.267 464.339C301.823 451.597 316.891 423.027 324.718 410.682C334.501 395.25 337.326 378.003 337.83 374.171C338.334 370.338 343.982 355.31 346.907 351.174C349.247 347.866 355.615 334.533 358.506 328.279C361.196 324.581 366.514 316.277 366.272 312.646C366.03 309.015 367.853 302.93 368.794 300.341C373.837 288.641 372.021 288.54 372.021 284.304C372.021 280.068 384.125 261.409 385.133 258.282C386.142 255.156 382.309 246.986 369.5 244.565C356.691 242.145 345.596 256.568 335.712 269.377C327.804 279.624 326.096 285.279 326.231 286.826C321.954 289.569 321.222 295.701 321.39 298.425C317.275 302.62 317.053 307.166 317.456 308.914C315.923 310.286 312.581 317.285 311.102 320.614C310.362 322.732 308.641 326.988 307.673 327.069C306.462 327.17 305.252 311.234 305.958 310.024C306.523 309.055 305.723 295.298 305.252 288.54C303.316 275.792 304.445 261.039 305.252 255.257C304.284 248.721 310.093 222.141 313.119 209.668C316.145 202.54 322.479 184.897 323.609 171.341C325.021 154.396 326.433 151.572 326.735 144.916C327.038 138.259 331.173 125.248 336.216 107.9C340.25 94.0216 339.78 82.4159 339.04 78.3479C338.906 73.5403 335.55 63.9249 323.205 63.9249C307.774 63.9249 303.739 80.7686 299.806 93.1744C296.659 103.099 294.998 108.875 294.561 110.522C291.871 123.567 285.605 150.665 282.054 154.699C277.616 159.742 276.608 165.289 273.078 181.225C270.254 193.974 262.555 224.461 259.058 238.11C254.015 246.885 258.05 251.323 255.931 254.248C254.237 256.588 252.805 254.08 252.301 252.533C255.447 248.176 255.293 241.102 254.822 238.11C257.545 193.328 262.286 191.513 266.623 180.015C270.092 170.816 272.372 160.448 273.078 156.414C275.095 135.132 278.121 127.063 279.23 119.801C280.118 113.992 283.702 101.647 285.383 96.2002C286.996 90.1822 290.829 75.3019 293.25 63.9249C296.275 49.7037 294.763 43.3495 294.258 38.3065C293.754 33.2635 286.896 27.3127 280.34 26.2032C275.095 25.3157 269.211 28.9937 266.925 30.9437C260.954 34.1712 256.436 55.4863 254.923 65.7404C252.368 75.2885 246.37 97.3701 242.82 109.312C238.389 124.215 215.759 196.173 226.26 155.067ZM226.26 155.067C222.069 184.435 211.86 238.995 202.26 247.567" stroke="black" stroke-opacity="0.6" stroke-width="1.25912"/>
<path d="M309.485 82.4901C308.528 87.4754 309.375 91.4631 309.918 92.8337C315.578 100.7 326.361 99.2359 329.664 97.5406C332.306 96.1844 334.133 90.9514 334.716 88.5045L337.592 75.2257C341.4 53.17 338.435 41.2918 333.224 40.0497C323.561 39.7324 315.472 59.4021 312.635 69.2767C311.983 71.6039 310.441 77.5048 309.485 82.4901Z" fill="#D32F2F"/>
<path d="M358.279 260.7C355.545 265.035 355.577 268.371 355.619 269.887C358.369 279.613 366.24 283.802 370.2 282.501C375.391 280.794 376.97 278.059 378.424 275.977L386.028 264.561C397.706 245.209 399.053 232.768 394.366 229.496C384.96 225.308 372.951 240.311 366.608 248.519C365.13 250.461 361.013 256.364 358.279 260.7Z" fill="#D32F2F"/>
<path d="M263.755 46.4046C262.695 51.8185 263.464 56.1165 263.98 57.5888C269.496 65.9866 280.334 64.1854 283.679 62.2844C286.354 60.7636 288.291 55.0642 288.925 52.4046L292.075 37.9775C296.337 14.0342 293.604 1.24035 288.405 0.00122215C278.726 -0.147503 270.221 21.3003 267.178 32.0428C266.478 34.5742 264.814 40.9907 263.755 46.4046Z" fill="#D32F2F"/>
<path d="M214.81 77.7507C213.819 82.7782 214.477 86.7574 214.929 88.1185C219.817 95.8634 229.559 94.1124 232.575 92.3248C234.988 90.8947 236.769 85.596 237.358 83.1254L240.293 69.7256C244.297 47.4945 241.94 35.653 237.283 34.543C228.596 34.4775 220.802 54.4266 217.991 64.4094C217.344 66.7617 215.802 72.7232 214.81 77.7507Z" fill="#D32F2F"/>
<path d="M148.889 147.332C148.07 151.412 148.497 154.619 148.813 155.712C152.335 161.895 159.627 160.325 161.904 158.832C163.726 157.638 165.138 153.326 165.616 151.32L168.017 140.441C171.356 122.406 169.785 112.871 166.331 112.047C159.854 112.132 153.726 128.382 151.472 136.497C150.952 138.409 149.708 143.253 148.889 147.332Z" fill="#D32F2F"/>
<path d="M503.454 82.4901C504.411 87.4754 503.565 91.4631 503.022 92.8337C497.361 100.7 486.578 99.2359 483.276 97.5406C480.634 96.1844 478.807 90.9514 478.223 88.5045L475.348 75.2257C471.54 53.17 474.505 41.2918 479.716 40.0497C489.378 39.7324 497.468 59.4021 500.305 69.2767C500.956 71.6039 502.498 77.5048 503.454 82.4901Z" fill="#D32F2F"/>
<path d="M454.662 260.7C457.396 265.035 457.364 268.371 457.322 269.887C454.572 279.613 446.702 283.802 442.742 282.501C437.55 280.794 435.971 278.059 434.517 275.977L426.913 264.561C415.236 245.209 413.889 232.768 418.576 229.496C427.981 225.308 439.99 240.311 446.333 248.519C447.811 250.461 451.929 256.364 454.662 260.7Z" fill="#D32F2F"/>
<path d="M549.187 46.4046C550.246 51.8185 549.478 56.1165 548.961 57.5888C543.445 65.9866 532.607 64.1854 529.263 62.2844C526.587 60.7636 524.65 55.0642 524.016 52.4046L520.866 37.9775C516.605 14.0342 519.338 1.24035 524.536 0.00122215C534.216 -0.147503 542.721 21.3003 545.763 32.0428C546.463 34.5742 548.127 40.9907 549.187 46.4046Z" fill="#D32F2F"/>
<path d="M598.131 77.7507C599.122 82.7782 598.465 86.7574 598.012 88.1185C593.124 95.8634 583.383 94.1124 580.367 92.3248C577.954 90.8947 576.172 85.596 575.584 83.1254L572.648 69.7256C568.644 47.4945 571.002 35.653 575.658 34.543C584.345 34.4775 592.139 54.4266 594.951 64.4094C595.598 66.7617 597.14 72.7232 598.131 77.7507Z" fill="#D32F2F"/>
<path d="M664.053 147.332C664.871 151.412 664.444 154.619 664.128 155.712C660.606 161.895 653.315 160.325 651.037 158.832C649.216 157.638 647.803 153.326 647.325 151.32L644.924 140.441C641.586 122.406 643.156 112.871 646.611 112.047C653.087 112.132 659.215 128.382 661.47 136.497C661.989 138.409 663.234 143.253 664.053 147.332Z" fill="#D32F2F"/>
</svg>
