<svg width="813" height="632" viewBox="0 0 813 632" fill="none" xmlns="http://www.w3.org/2000/svg">
<path d="M586.26 149C586.243 148.933 585.653 142.547 585.636 142.479C585.392 141.525 585.131 140.798 585.232 140.462C582.576 130.376 577.285 109.417 577.365 106.27C577.446 103.124 575.516 96.8231 574.541 94.0663C572.524 88.25 569.034 74.1767 571.213 64.4134C573.391 54.6502 578.307 52.4783 580.492 52.6128C606.413 55.7395 605.203 79.7442 608.027 86.1992C610.286 91.3632 615.221 116.39 617.407 128.258C619.054 136.394 623.378 154.945 627.493 164.063C631.608 173.181 634.587 187.967 635.562 194.22L638.083 201.785C638.083 211.548 644.74 230.732 648.068 239.103C648.741 235.035 649.682 225.366 648.068 219.234C646.051 211.568 646.858 201.079 648.068 194.22C649.278 187.362 647.06 181.714 643.227 161.643C639.394 141.571 645.042 135.318 648.976 131.385C652.909 127.451 660.978 125.938 668.543 142.681C674.594 156.075 676.645 171.729 676.914 177.881C676.376 180.739 676.289 189.52 680.243 201.785C684.196 214.049 684.042 224.512 683.47 228.21L689.219 258.166L699.507 293.063C700.986 298.913 703.682 312.469 702.633 319.892C701.585 327.315 703.071 343.829 703.945 351.159C705.121 359.16 706.769 379.964 703.945 399.168C701.121 418.372 702.768 426.669 703.945 428.417C716.693 493.291 780.8 590.6 811.26 631.146H628.199L581.501 533.413C569.881 498.878 551.377 486.681 543.577 484.899C528.488 476.346 519.741 463.584 517.253 458.272C510.697 445.53 495.628 416.96 487.801 404.615C478.018 389.183 475.194 371.936 474.69 368.103C474.185 364.27 468.537 349.242 465.612 345.107C463.272 341.799 456.905 328.465 454.013 322.212C451.324 318.514 446.005 310.209 446.247 306.579C446.489 302.948 444.667 296.862 443.726 294.274C438.683 282.574 440.498 282.473 440.498 278.237C440.498 274.001 428.395 255.342 427.386 252.215C426.378 249.088 430.21 240.919 443.02 238.498C455.829 236.077 466.923 250.5 476.808 263.31C484.715 273.557 486.423 279.212 486.289 280.758C490.565 283.502 491.298 289.634 491.13 292.357C495.245 296.553 495.467 301.098 495.063 302.847C496.596 304.218 499.938 311.218 501.418 314.546C502.157 316.665 503.879 320.921 504.847 321.001C506.057 321.102 507.267 305.166 506.561 303.956C505.997 302.988 506.797 289.231 507.267 282.473C509.204 269.724 508.074 254.972 507.267 249.189C508.236 242.653 502.426 216.073 499.4 203.6C496.375 196.473 490.041 178.829 488.911 165.274C487.499 148.329 486.087 145.505 485.784 138.848C485.482 132.191 481.346 119.18 476.303 101.833C472.269 87.9542 472.74 76.3486 473.479 72.2805C473.614 67.4729 476.969 57.8575 489.314 57.8575C504.746 57.8575 508.78 74.7012 512.714 87.107C515.861 97.0316 517.522 102.808 517.959 104.455C520.648 117.499 526.915 144.597 530.465 148.632C534.903 153.675 535.912 159.222 539.442 175.158C542.266 187.907 549.965 218.393 553.461 232.043C558.504 240.818 554.47 245.256 556.588 248.181C558.283 250.52 559.715 248.012 560.219 246.466C557.072 242.109 557.227 235.035 557.698 232.043C554.974 187.261 550.234 185.446 545.897 173.947C542.427 164.749 540.148 154.381 539.442 150.346C537.425 129.065 534.399 120.996 533.289 113.734C532.402 107.924 528.818 95.5792 527.137 90.1328C525.523 84.1148 521.69 69.2346 519.27 57.8575C516.244 43.6363 517.757 37.2821 518.261 32.2391C518.766 27.1961 525.624 21.2453 532.18 20.1359C537.425 19.2483 543.308 22.9263 545.594 24.8763C551.565 28.1038 556.084 49.4189 557.597 59.673C560.152 69.2211 566.15 91.3027 569.7 103.245C574.131 118.148 596.76 190.105 586.26 149ZM586.26 149C590.451 178.368 600.66 232.928 610.26 241.5" stroke="black" stroke-opacity="0.6" stroke-width="1.25912"/>
<path d="M613.467 481.143C629.282 490.099 628.125 495.431 625.57 496.978C622.988 514.164 645.271 537.423 656.736 546.904C664.563 545.613 667.124 549.795 667.427 552.047C686.288 576.456 681.547 587.147 684.17 597.434C686.268 605.665 682.22 623.053 679.934 630.718H712.007C717.756 590.576 703.636 565.764 696.273 554.872C690.383 546.157 681.043 524.546 677.11 514.83C643.826 483.866 634.547 491.834 631.521 491.834C629.1 491.834 624.931 486.858 623.149 484.37C624.44 474.284 617.232 471.494 613.467 471.359C619.841 477.492 619.687 480.437 618.812 481.143C614.536 479.852 613.467 480.605 613.467 481.143Z" fill="#3C4244" stroke="#535B5E" stroke-width="0.629562"/>
<path d="M750.616 610.018C728.032 601.658 723.666 620.335 724.306 630.718H744.791C744.893 627.905 746.626 626.464 747.479 626.096C752.805 622.398 759.813 627.637 762.651 630.718H777.502C769.82 618.539 756.377 611.844 750.616 610.018Z" fill="#3C4244" stroke="#535B5E" stroke-width="0.629562"/>
<path d="M226.26 149C226.277 148.933 226.866 142.547 226.884 142.479C227.128 141.525 227.388 140.798 227.287 140.462C229.943 130.376 235.235 109.417 235.154 106.27C235.074 103.124 237.003 96.8231 237.978 94.0663C239.996 88.25 243.485 74.1767 241.307 64.4134C239.128 54.6502 234.213 52.4783 232.028 52.6128C206.107 55.7395 207.317 79.7442 204.493 86.1992C202.234 91.3632 197.298 116.39 195.113 128.258C193.465 136.394 189.142 154.945 185.027 164.063C180.912 173.181 177.933 187.967 176.958 194.22L174.437 201.785C174.437 211.548 167.78 230.732 164.451 239.103C163.779 235.035 162.838 225.366 164.451 219.234C166.469 211.568 165.662 201.079 164.451 194.22C163.241 187.362 165.46 181.714 169.293 161.643C173.125 141.571 167.477 135.318 163.544 131.385C159.61 127.451 151.541 125.938 143.977 142.681C137.925 156.075 135.874 171.729 135.605 177.881C136.143 180.739 136.231 189.52 132.277 201.785C128.323 214.049 128.478 224.512 129.049 228.21L123.3 258.166L113.013 293.063C111.533 298.913 108.837 312.469 109.886 319.892C110.935 327.315 109.449 343.829 108.575 351.159C107.398 359.16 105.751 379.964 108.575 399.168C111.399 418.372 109.752 426.669 108.575 428.417C95.8262 493.291 31.7195 590.6 1.25977 631.146H184.321L231.019 533.413C242.638 498.878 261.143 486.681 268.942 484.899C284.031 476.346 292.779 463.584 295.267 458.272C301.823 445.53 316.891 416.96 324.718 404.615C334.501 389.183 337.326 371.936 337.83 368.103C338.334 364.27 343.982 349.242 346.907 345.107C349.247 341.799 355.615 328.465 358.506 322.212C361.196 318.514 366.514 310.209 366.272 306.579C366.03 302.948 367.853 296.862 368.794 294.274C373.837 282.574 372.021 282.473 372.021 278.237C372.021 274.001 384.125 255.342 385.133 252.215C386.142 249.088 382.309 240.919 369.5 238.498C356.691 236.077 345.596 250.5 335.712 263.31C327.804 273.557 326.096 279.212 326.231 280.758C321.954 283.502 321.222 289.634 321.39 292.357C317.275 296.553 317.053 301.098 317.456 302.847C315.923 304.218 312.581 311.218 311.102 314.546C310.362 316.665 308.641 320.921 307.673 321.001C306.462 321.102 305.252 305.166 305.958 303.956C306.523 302.988 305.723 289.231 305.252 282.473C303.316 269.724 304.445 254.972 305.252 249.189C304.284 242.653 310.093 216.073 313.119 203.6C316.145 196.473 322.479 178.829 323.609 165.274C325.021 148.329 326.433 145.505 326.735 138.848C327.038 132.191 331.173 119.18 336.216 101.833C340.25 87.9542 339.78 76.3486 339.04 72.2805C338.906 67.4729 335.55 57.8575 323.205 57.8575C307.774 57.8575 303.739 74.7012 299.806 87.107C296.659 97.0316 294.998 102.808 294.561 104.455C291.871 117.499 285.605 144.597 282.054 148.632C277.616 153.675 276.608 159.222 273.078 175.158C270.254 187.907 262.555 218.393 259.058 232.043C254.015 240.818 258.05 245.256 255.931 248.181C254.237 250.52 252.805 248.012 252.301 246.466C255.447 242.109 255.293 235.035 254.822 232.043C257.545 187.261 262.286 185.446 266.623 173.947C270.092 164.749 272.372 154.381 273.078 150.346C275.095 129.065 278.121 120.996 279.23 113.734C280.118 107.924 283.702 95.5792 285.383 90.1328C286.996 84.1148 290.829 69.2346 293.25 57.8575C296.275 43.6363 294.763 37.2821 294.258 32.2391C293.754 27.1961 286.896 21.2453 280.34 20.1359C275.095 19.2483 269.211 22.9263 266.925 24.8763C260.954 28.1038 256.436 49.4189 254.923 59.673C252.368 69.2211 246.37 91.3027 242.82 103.245C238.389 118.148 215.759 190.105 226.26 149ZM226.26 149C222.069 178.368 211.86 232.928 202.26 241.5" stroke="black" stroke-opacity="0.6" stroke-width="1.25912"/>
<path d="M314.043 63.3926C309.134 72.9483 308.133 80.8243 308.246 83.5679C311.697 92.5403 327.142 94.6453 330.958 88.9827C333.095 85.8117 335.074 74.0153 335.199 68.4366L336.091 48.1437C330.936 44.3908 325.232 44.5031 323.025 45.0283L314.043 63.3926Z" fill="#D32F2F"/>
<path d="M386.734 255.817C382.211 266.766 376.503 273.453 374.214 275.428C364.725 279.521 357.198 267.557 359.288 260.373C360.459 256.35 364.478 247.655 368.901 243.368L384.706 227.434C391.089 228.571 394.709 233.034 395.72 235.123L386.734 255.817Z" fill="#D32F2F"/>
<path d="M268.638 26.7214C263.406 37.1019 262.291 45.633 262.387 48.601C265.938 58.2826 282.139 60.4353 286.193 54.2766C288.462 50.8278 290.637 38.0463 290.812 32.0083L291.914 10.0412C286.531 6.02178 280.541 6.18949 278.218 6.77577L268.638 26.7214Z" fill="#D32F2F"/>
<path d="M218.755 56.8503C213.631 67.3105 212.467 75.8706 212.525 78.8432C215.812 88.5028 231.288 90.4748 235.237 84.2581C237.448 80.7768 239.674 67.9459 239.911 61.8943L241.216 39.8725C236.111 35.9068 230.378 36.1432 228.149 36.7571L218.755 56.8503Z" fill="#D32F2F"/>
<path d="M151.197 132.376C147.432 139.625 146.684 145.611 146.78 147.697C149.479 154.531 161.433 156.183 164.366 151.89C166.009 149.486 167.501 140.523 167.579 136.282L168.201 120.855C164.201 117.984 159.789 118.051 158.083 118.443L151.197 132.376Z" fill="#D32F2F"/>
<path d="M498.278 63.3926C503.186 72.9483 504.187 80.8243 504.074 83.5679C500.623 92.5403 485.179 94.6453 481.363 88.9827C479.226 85.8117 477.246 74.0153 477.122 68.4366L476.229 48.1437C481.384 44.3908 487.088 44.5031 489.296 45.0283L498.278 63.3926Z" fill="#D32F2F"/>
<path d="M425.586 255.817C430.109 266.766 435.817 273.453 438.106 275.428C447.595 279.521 455.122 267.557 453.032 260.373C451.862 256.35 447.843 247.655 443.419 243.368L427.614 227.434C421.231 228.571 417.612 233.034 416.6 235.123L425.586 255.817Z" fill="#D32F2F"/>
<path d="M543.685 26.7214C548.917 37.1019 550.032 45.633 549.935 48.601C546.384 58.2826 530.183 60.4353 526.13 54.2766C523.86 50.8278 521.686 38.0463 521.51 32.0083L520.408 10.0412C525.791 6.02178 531.782 6.18949 534.104 6.77577L543.685 26.7214Z" fill="#D32F2F"/>
<path d="M593.565 56.8503C598.69 67.3105 599.854 75.8706 599.795 78.8432C596.508 88.5028 581.032 90.4748 577.084 84.2581C574.873 80.7768 572.647 67.9459 572.409 61.8943L571.105 39.8725C576.209 35.9068 581.943 36.1432 584.171 36.7571L593.565 56.8503Z" fill="#D32F2F"/>
<path d="M661.123 132.376C664.889 139.625 665.637 145.611 665.54 147.697C662.841 154.531 650.887 156.183 647.954 151.89C646.311 149.486 644.819 140.523 644.742 136.282L644.119 120.855C648.119 117.984 652.531 118.051 654.237 118.443L661.123 132.376Z" fill="#D32F2F"/>
</svg>
