<svg width="813" height="632" viewBox="0 0 813 632" fill="none" xmlns="http://www.w3.org/2000/svg">
<path d="M811.26 631.146C780.8 590.6 716.693 493.291 703.945 428.417C702.768 426.669 701.121 418.372 703.945 399.168C706.769 379.964 705.121 359.16 703.945 351.159C703.071 343.829 701.585 327.315 702.633 319.892C703.682 312.469 700.986 298.913 699.507 293.063L689.219 258.166L683.47 228.21C684.042 224.512 684.196 214.049 680.243 201.785C676.289 189.52 676.376 180.739 676.914 177.881C676.645 171.729 674.594 156.075 668.543 142.681C660.978 125.938 652.909 127.451 648.976 131.385C645.042 135.318 639.394 141.571 643.227 161.643C647.06 181.714 649.278 187.362 648.068 194.22C646.858 201.079 646.051 211.568 648.068 219.234C649.682 225.366 648.741 235.035 648.068 239.103C644.74 230.732 638.083 211.548 638.083 201.785L635.562 194.22C634.587 187.967 631.608 173.181 627.493 164.063C623.378 154.945 619.054 136.394 617.407 128.258C615.221 116.39 610.286 91.3633 608.027 86.1992C605.203 79.7442 606.413 55.7395 580.492 52.6128C578.307 52.4783 573.391 54.6502 571.213 64.4134C569.034 74.1767 572.524 88.25 574.541 94.0663C575.516 96.8231 577.446 103.124 577.365 106.27C577.285 109.417 582.576 130.376 585.232 140.462C585.131 140.798 585.392 141.525 585.636 142.479C585.653 142.547 586.243 148.933 586.26 149C586.708 152.139 587.224 155.566 587.802 159.193C584.053 149.615 572.701 113.34 569.7 103.245C566.15 91.3027 560.152 69.2211 557.597 59.673C556.084 49.4189 551.565 28.1038 545.594 24.8763C543.308 22.9263 537.425 19.2483 532.18 20.1359C525.624 21.2453 518.766 27.1961 518.261 32.2391C517.757 37.2821 516.244 43.6363 519.27 57.8575C521.69 69.2346 525.523 84.1148 527.137 90.1328C528.818 95.5792 532.402 107.924 533.289 113.734C534.399 120.996 537.425 129.065 539.442 150.346C540.148 154.381 542.427 164.749 545.897 173.947C550.234 185.446 554.974 187.261 557.698 232.043C557.227 235.035 557.072 242.109 560.219 246.466C559.715 248.012 558.283 250.52 556.588 248.181C554.47 245.256 558.504 240.818 553.461 232.043C549.965 218.393 542.266 187.907 539.442 175.158C535.912 159.222 534.903 153.675 530.465 148.632C526.915 144.597 520.648 117.499 517.959 104.455C517.522 102.808 515.861 97.0316 512.714 87.107C508.78 74.7012 504.746 57.8575 489.314 57.8575C476.969 57.8575 473.614 67.4729 473.479 72.2805C472.74 76.3486 472.269 87.9542 476.303 101.833C481.346 119.18 485.482 132.191 485.784 138.848C486.087 145.505 487.499 148.329 488.911 165.274C490.041 178.829 496.375 196.473 499.4 203.6C502.426 216.073 508.236 242.653 507.267 249.189C508.074 254.972 509.204 269.724 507.267 282.473C506.797 289.231 505.997 302.988 506.561 303.956C507.267 305.166 506.057 321.102 504.847 321.001C503.879 320.921 502.157 316.665 501.418 314.546C499.938 311.218 496.596 304.218 495.063 302.847C495.467 301.098 495.245 296.553 491.13 292.357C491.298 289.634 490.565 283.502 486.289 280.758C486.423 279.212 484.715 273.557 476.808 263.31L476.738 263.219C466.871 250.432 455.799 236.083 443.02 238.498C430.21 240.919 426.378 249.088 427.386 252.215C428.395 255.342 440.498 274.001 440.498 278.237C440.498 282.473 438.683 282.574 443.726 294.274C444.667 296.862 446.489 302.948 446.247 306.579C446.005 310.209 451.324 318.514 454.013 322.212C456.905 328.465 463.272 341.799 465.612 345.107C468.537 349.242 474.185 364.27 474.69 368.103C475.194 371.936 478.018 389.183 487.801 404.615C495.628 416.96 510.697 445.53 517.253 458.272C519.741 463.584 528.488 476.346 543.577 484.899C551.377 486.681 569.881 498.878 581.501 533.413L628.199 631.146H811.26Z" fill="url(#paint0_linear_681_468)"/>
<path d="M586.26 149C586.243 148.933 585.653 142.547 585.636 142.479C585.392 141.525 585.131 140.798 585.232 140.462C582.576 130.376 577.285 109.417 577.365 106.27C577.446 103.124 575.516 96.8231 574.541 94.0663C572.524 88.25 569.034 74.1767 571.213 64.4134C573.391 54.6502 578.307 52.4783 580.492 52.6128C606.413 55.7395 605.203 79.7442 608.027 86.1992C610.286 91.3632 615.221 116.39 617.407 128.258C619.054 136.394 623.378 154.945 627.493 164.063C631.608 173.181 634.587 187.967 635.562 194.22L638.083 201.785C638.083 211.548 644.74 230.732 648.068 239.103C648.741 235.035 649.682 225.366 648.068 219.234C646.051 211.568 646.858 201.079 648.068 194.22C649.278 187.362 647.06 181.714 643.227 161.643C639.394 141.571 645.042 135.318 648.976 131.385C652.909 127.451 660.978 125.938 668.543 142.681C674.594 156.075 676.645 171.729 676.914 177.881C676.376 180.739 676.289 189.52 680.243 201.785C684.196 214.049 684.042 224.512 683.47 228.21L689.219 258.166L699.507 293.063C700.986 298.913 703.682 312.469 702.633 319.892C701.585 327.315 703.071 343.829 703.945 351.159C705.121 359.16 706.769 379.964 703.945 399.168C701.121 418.372 702.768 426.669 703.945 428.417C716.693 493.291 780.8 590.6 811.26 631.146H628.199L581.501 533.413C569.881 498.878 551.377 486.681 543.577 484.899C528.488 476.346 519.741 463.584 517.253 458.272C510.697 445.53 495.628 416.96 487.801 404.615C478.018 389.183 475.194 371.936 474.69 368.103C474.185 364.27 468.537 349.242 465.612 345.107C463.272 341.799 456.905 328.465 454.013 322.212C451.324 318.514 446.005 310.209 446.247 306.579C446.489 302.948 444.667 296.862 443.726 294.274C438.683 282.574 440.498 282.473 440.498 278.237C440.498 274.001 428.395 255.342 427.386 252.215C426.378 249.088 430.21 240.919 443.02 238.498C455.829 236.077 466.923 250.5 476.808 263.31C484.715 273.557 486.423 279.212 486.289 280.758C490.565 283.502 491.298 289.634 491.13 292.357C495.245 296.553 495.467 301.098 495.063 302.847C496.596 304.218 499.938 311.218 501.418 314.546C502.157 316.665 503.879 320.921 504.847 321.001C506.057 321.102 507.267 305.166 506.561 303.956C505.997 302.988 506.797 289.231 507.267 282.473C509.204 269.724 508.074 254.972 507.267 249.189C508.236 242.653 502.426 216.073 499.4 203.6C496.375 196.473 490.041 178.829 488.911 165.274C487.499 148.329 486.087 145.505 485.784 138.848C485.482 132.191 481.346 119.18 476.303 101.833C472.269 87.9542 472.74 76.3486 473.479 72.2805C473.614 67.4729 476.969 57.8575 489.314 57.8575C504.746 57.8575 508.78 74.7012 512.714 87.107C515.861 97.0316 517.522 102.808 517.959 104.455C520.648 117.499 526.915 144.597 530.465 148.632C534.903 153.675 535.912 159.222 539.442 175.158C542.266 187.907 549.965 218.393 553.461 232.043C558.504 240.818 554.47 245.256 556.588 248.181C558.283 250.52 559.715 248.012 560.219 246.466C557.072 242.109 557.227 235.035 557.698 232.043C554.974 187.261 550.234 185.446 545.897 173.947C542.427 164.749 540.148 154.381 539.442 150.346C537.425 129.065 534.399 120.996 533.289 113.734C532.402 107.924 528.818 95.5792 527.137 90.1328C525.523 84.1148 521.69 69.2346 519.27 57.8575C516.244 43.6363 517.757 37.2821 518.261 32.2391C518.766 27.1961 525.624 21.2453 532.18 20.1359C537.425 19.2483 543.308 22.9263 545.594 24.8763C551.565 28.1038 556.084 49.4189 557.597 59.673C560.152 69.2211 566.15 91.3027 569.7 103.245C574.131 118.148 596.76 190.105 586.26 149ZM586.26 149C590.451 178.368 600.66 232.928 610.26 241.5" stroke="black" stroke-opacity="0.6" stroke-width="1.25912"/>
<path d="M613.467 481.143C629.282 490.099 628.125 495.431 625.57 496.978C622.988 514.164 645.271 537.423 656.736 546.904C664.563 545.613 667.124 549.795 667.427 552.047C686.288 576.456 681.547 587.147 684.17 597.434C686.268 605.665 682.22 623.053 679.934 630.718H712.007C717.756 590.576 703.636 565.764 696.273 554.872C690.383 546.157 681.043 524.546 677.11 514.83C643.826 483.866 634.547 491.834 631.521 491.834C629.1 491.834 624.931 486.858 623.149 484.37C624.44 474.284 617.232 471.494 613.467 471.359C619.841 477.492 619.687 480.437 618.812 481.143C614.536 479.852 613.467 480.605 613.467 481.143Z" fill="#3C4244" stroke="#535B5E" stroke-width="0.629562"/>
<path d="M750.616 610.018C728.032 601.658 723.666 620.335 724.306 630.718H744.791C744.893 627.905 746.626 626.464 747.479 626.096C752.805 622.398 759.813 627.637 762.651 630.718H777.502C769.82 618.539 756.377 611.844 750.616 610.018Z" fill="#3C4244" stroke="#535B5E" stroke-width="0.629562"/>
<path d="M494.343 97.8856C484.874 100.423 481.237 96.3162 480.602 93.9459C480.246 93.0468 465.16 45.3965 479.905 41.4447C495.259 37.3297 504.204 79.6682 505.232 87.3462C506.104 93.8551 497.676 97.103 494.343 97.8856Z" fill="#D32F2F"/>
<path d="M451.851 272.634C444.13 277.396 439.72 274.565 438.48 272.555C437.908 271.822 410.917 232 422.941 224.584C435.463 216.862 452.459 250.179 455.558 256.956C458.185 262.702 454.601 271.06 451.851 272.634Z" fill="#D32F2F"/>
<path d="M539.343 59.8856C529.874 62.4226 526.237 58.3162 525.602 55.9459C525.246 55.0468 510.16 7.39652 524.905 3.44472C540.259 -0.670257 549.204 41.6682 550.232 49.3462C551.104 55.8551 542.676 59.103 539.343 59.8856Z" fill="#D32F2F"/>
<path d="M589.718 88.0812C581.167 90.3723 577.882 86.6639 577.309 84.5233C576.988 83.7114 563.363 40.6798 576.679 37.111C590.545 33.3949 598.623 71.6296 599.552 78.5634C600.339 84.4413 592.727 87.3744 589.718 88.0812Z" fill="#D32F2F"/>
<path d="M659.452 156.363C653.521 157.952 651.224 155.308 650.816 153.787C650.59 153.21 640.944 122.633 650.18 120.158C659.798 117.58 665.57 144.732 666.244 149.654C666.816 153.826 661.54 155.874 659.452 156.363Z" fill="#D32F2F"/>
<path d="M1.26074 631.146C31.7205 590.6 95.8271 493.291 108.576 428.417C109.753 426.669 111.4 418.372 108.576 399.168C105.752 379.964 107.399 359.16 108.576 351.159C109.45 343.829 110.936 327.315 109.887 319.892C108.838 312.469 111.534 298.913 113.014 293.063L123.301 258.166L129.05 228.21C128.479 224.512 128.324 214.049 132.278 201.785C136.232 189.52 136.144 180.739 135.606 177.881C135.875 171.729 137.926 156.075 143.978 142.681C151.542 125.938 159.611 127.451 163.545 131.385C167.478 135.318 173.126 141.571 169.294 161.643C165.461 181.714 163.242 187.362 164.452 194.22C165.663 201.079 166.47 211.568 164.452 219.234C162.839 225.366 163.78 235.035 164.452 239.103C167.781 230.732 174.438 211.548 174.438 201.785L176.959 194.22C177.934 187.967 180.913 173.181 185.028 164.063C189.143 154.945 193.466 136.394 195.114 128.258C197.299 116.39 202.235 91.3633 204.494 86.1992C207.318 79.7442 206.108 55.7395 232.029 52.6128C234.214 52.4783 239.129 54.6502 241.308 64.4134C243.486 74.1767 239.997 88.25 237.979 94.0663C237.004 96.8231 235.075 103.124 235.155 106.27C235.236 109.417 229.944 130.376 227.288 140.462C227.389 140.798 227.129 141.525 226.885 142.479C226.867 142.547 226.278 148.933 226.261 149C225.813 152.139 225.296 155.566 224.719 159.193C228.467 149.615 239.819 113.34 242.821 103.245C246.371 91.3027 252.369 69.2211 254.924 59.673C256.437 49.4189 260.955 28.1038 266.926 24.8763C269.212 22.9263 275.096 19.2483 280.341 20.1359C286.896 21.2453 293.755 27.1961 294.259 32.2391C294.764 37.2821 296.276 43.6363 293.251 57.8575C290.83 69.2346 286.997 84.1148 285.384 90.1328C283.703 95.5792 280.119 107.924 279.231 113.734C278.122 120.996 275.096 129.065 273.079 150.346C272.373 154.381 270.093 164.749 266.624 173.947C262.287 185.446 257.546 187.261 254.823 232.043C255.294 235.035 255.448 242.109 252.301 246.466C252.806 248.012 254.238 250.52 255.932 248.181C258.051 245.256 254.016 240.818 259.059 232.043C262.556 218.393 270.255 187.907 273.079 175.158C276.609 159.222 277.617 153.675 282.055 148.632C285.605 144.597 291.872 117.499 294.562 104.455C294.999 102.808 296.66 97.0316 299.807 87.107C303.74 74.7012 307.775 57.8575 323.206 57.8575C335.551 57.8575 338.907 67.4729 339.041 72.2805C339.781 76.3486 340.251 87.9542 336.217 101.833C331.174 119.18 327.039 132.191 326.736 138.848C326.434 145.505 325.022 148.329 323.61 165.274C322.48 178.829 316.146 196.473 313.12 203.6C310.094 216.073 304.285 242.653 305.253 249.189C304.446 254.972 303.316 269.724 305.253 282.473C305.724 289.231 306.524 302.988 305.959 303.956C305.253 305.166 306.463 321.102 307.674 321.001C308.642 320.921 310.363 316.665 311.103 314.546C312.582 311.218 315.924 304.218 317.457 302.847C317.054 301.098 317.276 296.553 321.391 292.357C321.223 289.634 321.955 283.502 326.232 280.758C326.097 279.212 327.805 273.557 335.713 263.31L335.783 263.219C345.65 250.432 356.722 236.083 369.501 238.498C382.31 240.919 386.143 249.088 385.134 252.215C384.126 255.342 372.022 274.001 372.022 278.237C372.022 282.473 373.838 282.574 368.795 294.274C367.854 296.862 366.031 302.948 366.273 306.579C366.515 310.209 361.197 318.514 358.507 322.212C355.616 328.465 349.248 341.799 346.908 345.107C343.983 349.242 338.335 364.27 337.831 368.103C337.327 371.936 334.502 389.183 324.719 404.615C316.892 416.96 301.824 445.53 295.268 458.272C292.78 463.584 284.032 476.346 268.943 484.899C261.144 486.681 242.639 498.878 231.02 533.413L184.322 631.146H1.26074Z" fill="url(#paint1_linear_681_468)"/>
<path d="M226.261 149C226.278 148.933 226.867 142.547 226.885 142.479C227.129 141.525 227.389 140.798 227.288 140.462C229.944 130.376 235.236 109.417 235.155 106.27C235.075 103.124 237.004 96.8231 237.979 94.0663C239.997 88.25 243.486 74.1767 241.308 64.4134C239.129 54.6502 234.214 52.4783 232.029 52.6128C206.108 55.7395 207.318 79.7442 204.494 86.1992C202.235 91.3632 197.299 116.39 195.114 128.258C193.466 136.394 189.143 154.945 185.028 164.063C180.913 173.181 177.934 187.967 176.959 194.22L174.438 201.785C174.438 211.548 167.781 230.732 164.452 239.103C163.78 235.035 162.839 225.366 164.452 219.234C166.47 211.568 165.663 201.079 164.452 194.22C163.242 187.362 165.461 181.714 169.294 161.643C173.126 141.571 167.478 135.318 163.545 131.385C159.611 127.451 151.542 125.938 143.978 142.681C137.926 156.075 135.875 171.729 135.606 177.881C136.144 180.739 136.232 189.52 132.278 201.785C128.324 214.049 128.479 224.512 129.05 228.21L123.301 258.166L113.014 293.063C111.534 298.913 108.838 312.469 109.887 319.892C110.936 327.315 109.45 343.829 108.576 351.159C107.399 359.16 105.752 379.964 108.576 399.168C111.4 418.372 109.753 426.669 108.576 428.417C95.8272 493.291 31.7205 590.6 1.26074 631.146H184.322L231.02 533.413C242.639 498.878 261.144 486.681 268.943 484.899C284.032 476.346 292.78 463.584 295.268 458.272C301.824 445.53 316.892 416.96 324.719 404.615C334.502 389.183 337.327 371.936 337.831 368.103C338.335 364.27 343.983 349.242 346.908 345.107C349.248 341.799 355.616 328.465 358.507 322.212C361.197 318.514 366.515 310.209 366.273 306.579C366.031 302.948 367.854 296.862 368.795 294.274C373.838 282.574 372.022 282.473 372.022 278.237C372.022 274.001 384.126 255.342 385.134 252.215C386.143 249.088 382.31 240.919 369.501 238.498C356.692 236.077 345.597 250.5 335.713 263.31C327.805 273.557 326.097 279.212 326.232 280.758C321.955 283.502 321.223 289.634 321.391 292.357C317.276 296.553 317.054 301.098 317.457 302.847C315.924 304.218 312.582 311.218 311.103 314.546C310.363 316.665 308.642 320.921 307.674 321.001C306.463 321.102 305.253 305.166 305.959 303.956C306.524 302.988 305.724 289.231 305.253 282.473C303.317 269.724 304.446 254.972 305.253 249.189C304.285 242.653 310.094 216.073 313.12 203.6C316.146 196.473 322.48 178.829 323.61 165.274C325.022 148.329 326.434 145.505 326.736 138.848C327.039 132.191 331.174 119.18 336.217 101.833C340.251 87.9542 339.781 76.3486 339.041 72.2805C338.907 67.4729 335.551 57.8575 323.206 57.8575C307.775 57.8575 303.74 74.7012 299.807 87.107C296.66 97.0316 294.999 102.808 294.562 104.455C291.872 117.499 285.605 144.597 282.055 148.632C277.617 153.675 276.609 159.222 273.079 175.158C270.255 187.907 262.556 218.393 259.059 232.043C254.016 240.818 258.051 245.256 255.932 248.181C254.238 250.52 252.806 248.012 252.301 246.466C255.448 242.109 255.294 235.035 254.823 232.043C257.546 187.261 262.287 185.446 266.624 173.947C270.093 164.749 272.373 154.381 273.079 150.346C275.096 129.065 278.122 120.996 279.231 113.734C280.119 107.924 283.703 95.5792 285.384 90.1328C286.997 84.1148 290.83 69.2346 293.251 57.8575C296.276 43.6363 294.764 37.2821 294.259 32.2391C293.755 27.1961 286.896 21.2453 280.341 20.1359C275.096 19.2483 269.212 22.9263 266.926 24.8763C260.955 28.1038 256.437 49.4189 254.924 59.673C252.369 69.2211 246.371 91.3027 242.821 103.245C238.39 118.148 215.76 190.105 226.261 149ZM226.261 149C222.07 178.368 211.861 232.928 202.261 241.5" stroke="black" stroke-opacity="0.6" stroke-width="1.25912"/>
<path d="M318.177 97.8856C327.645 100.423 331.282 96.3162 331.918 93.9459C332.273 93.0468 347.36 45.3965 332.615 41.4447C317.26 37.3297 308.316 79.6682 307.287 87.3462C306.416 93.8551 314.844 97.103 318.177 97.8856Z" fill="#D32F2F"/>
<path d="M360.668 272.634C368.39 277.396 372.8 274.565 374.04 272.555C374.612 271.822 401.603 232 389.578 224.584C377.057 216.862 360.06 250.179 356.962 256.956C354.335 262.702 357.919 271.06 360.668 272.634Z" fill="#D32F2F"/>
<path d="M273.177 59.8856C282.645 62.4226 286.282 58.3162 286.918 55.9459C287.273 55.0468 302.36 7.39652 287.615 3.44472C272.26 -0.670257 263.316 41.6682 262.287 49.3462C261.416 55.8551 269.844 59.103 273.177 59.8856Z" fill="#D32F2F"/>
<path d="M222.802 88.0812C231.353 90.3723 234.637 86.6639 235.211 84.5233C235.532 83.7114 249.156 40.6798 235.84 37.111C221.974 33.3949 213.897 71.6296 212.968 78.5634C212.181 84.4413 219.792 87.3744 222.802 88.0812Z" fill="#D32F2F"/>
<path d="M153.068 156.363C158.998 157.952 161.296 155.308 161.703 153.787C161.93 153.21 171.575 122.633 162.339 120.158C152.722 117.58 146.95 144.732 146.275 149.654C145.704 153.826 150.979 155.874 153.068 156.363Z" fill="#D32F2F"/>
<defs>
<linearGradient id="paint0_linear_681_468" x1="619.246" y1="20" x2="776.26" y2="637.5" gradientUnits="userSpaceOnUse">
<stop stop-color="#BF8064"/>
<stop offset="1" stop-color="#A75D3C"/>
</linearGradient>
<linearGradient id="paint1_linear_681_468" x1="193.274" y1="20" x2="36.2607" y2="637.5" gradientUnits="userSpaceOnUse">
<stop stop-color="#BF8064"/>
<stop offset="1" stop-color="#A75D3C"/>
</linearGradient>
</defs>
</svg>
