<svg width="813" height="640" viewBox="0 0 813 640" fill="none" xmlns="http://www.w3.org/2000/svg">
<path d="M586.26 156.953C586.243 156.886 585.653 150.5 585.636 150.432C585.392 149.478 585.131 148.751 585.232 148.415C582.576 138.329 577.285 117.37 577.365 114.223C577.446 111.077 575.516 104.776 574.541 102.019C572.524 96.2032 569.034 82.1298 571.213 72.3666C573.391 62.6033 578.307 60.4314 580.492 60.5659C606.413 63.6926 605.203 87.6973 608.027 94.1523C610.286 99.3164 615.221 124.343 617.407 136.211C619.054 144.347 623.378 162.899 627.493 172.016C631.608 181.134 634.587 195.92 635.562 202.173L638.083 209.738C638.083 219.501 644.74 238.685 648.068 247.056C648.741 242.988 649.682 233.319 648.068 227.187C646.051 219.521 646.858 209.032 648.068 202.173C649.278 195.315 647.06 189.667 643.227 169.596C639.394 149.525 645.042 143.271 648.976 139.338C652.909 135.404 660.978 133.891 668.543 150.634C674.594 164.028 676.645 179.682 676.914 185.834C676.376 188.692 676.289 197.473 680.243 209.738C684.196 222.003 684.042 232.465 683.47 236.163L689.219 266.119L699.507 301.016C700.986 306.866 703.682 320.422 702.633 327.845C701.585 335.268 703.071 351.783 703.945 359.112C705.121 367.113 706.769 387.917 703.945 407.121C701.121 426.325 702.768 434.622 703.945 436.371C716.693 501.244 780.8 598.554 811.26 639.099H628.199L581.501 541.366C569.881 506.831 551.377 494.634 543.577 492.852C528.488 484.299 519.741 471.537 517.253 466.225C510.697 453.483 495.628 424.913 487.801 412.568C478.018 397.136 475.194 379.889 474.69 376.056C474.185 372.224 468.537 357.195 465.612 353.06C463.272 349.752 456.905 336.418 454.013 330.165C451.324 326.467 446.005 318.163 446.247 314.532C446.489 310.901 444.667 304.815 443.726 302.227C438.683 290.527 440.498 290.426 440.498 286.19C440.498 281.954 428.395 263.295 427.386 260.168C426.378 257.041 430.21 248.872 443.02 246.451C455.829 244.03 466.923 258.453 476.808 271.263C484.715 281.51 486.423 287.165 486.289 288.711C490.565 291.455 491.298 297.587 491.13 300.31C495.245 304.506 495.467 309.052 495.063 310.8C496.596 312.172 499.938 319.171 501.418 322.5C502.157 324.618 503.879 328.874 504.847 328.955C506.057 329.055 507.267 313.12 506.561 311.909C505.997 310.941 506.797 297.184 507.267 290.426C509.204 277.677 508.074 262.925 507.267 257.142C508.236 250.607 502.426 224.027 499.4 211.553C496.375 204.426 490.041 186.782 488.911 173.227C487.499 156.282 486.087 153.458 485.784 146.801C485.482 140.145 481.346 127.134 476.303 109.786C472.269 95.9073 472.74 84.3017 473.479 80.2337C473.614 75.426 476.969 65.8107 489.314 65.8107C504.746 65.8107 508.78 82.6543 512.714 95.0601C515.861 104.985 517.522 110.761 517.959 112.408C520.648 125.453 526.915 152.55 530.465 156.585C534.903 161.628 535.912 167.175 539.442 183.111C542.266 195.86 549.965 226.346 553.461 239.996C558.504 248.771 554.47 253.209 556.588 256.134C558.283 258.474 559.715 255.966 560.219 254.419C557.072 250.062 557.227 242.988 557.698 239.996C554.974 195.214 550.234 193.399 545.897 181.901C542.427 172.702 540.148 162.334 539.442 158.299C537.425 137.018 534.399 128.949 533.289 121.687C532.402 115.878 528.818 103.532 527.137 98.0859C525.523 92.0679 521.69 77.1877 519.27 65.8107C516.244 51.5894 517.757 45.2352 518.261 40.1922C518.766 35.1492 525.624 29.1984 532.18 28.089C537.425 27.2014 543.308 30.8795 545.594 32.8294C551.565 36.0569 556.084 57.372 557.597 67.6261C560.152 77.1742 566.15 99.2559 569.7 111.198C574.131 126.101 596.76 198.058 586.26 156.953ZM586.26 156.953C590.451 186.321 600.66 240.881 610.26 249.453" stroke="black" stroke-opacity="0.6" stroke-width="1.25912"/>
<path d="M613.467 489.096C629.282 498.052 628.125 503.384 625.57 504.931C622.988 522.118 645.271 545.376 656.736 554.857C664.563 553.566 667.124 557.748 667.427 560.001C686.288 584.409 681.547 595.1 684.17 605.388C686.268 613.618 682.22 631.006 679.934 638.671H712.007C717.756 598.529 703.636 573.718 696.273 562.825C690.383 554.11 681.043 532.499 677.11 522.783C643.826 491.819 634.547 499.787 631.521 499.787C629.1 499.787 624.931 494.811 623.149 492.323C624.44 482.237 617.232 479.447 613.467 479.312C619.841 485.445 619.687 488.39 618.812 489.096C614.536 487.805 613.467 488.558 613.467 489.096Z" fill="#3C4244" stroke="#535B5E" stroke-width="0.629562"/>
<path d="M750.616 617.971C728.032 609.611 723.666 628.288 724.306 638.671H744.791C744.893 635.858 746.626 634.417 747.479 634.049C752.805 630.351 759.813 635.59 762.651 638.671H777.502C769.82 626.493 756.377 619.797 750.616 617.971Z" fill="#3C4244" stroke="#535B5E" stroke-width="0.629562"/>
<path d="M226.26 156.953C226.277 156.886 226.866 150.5 226.884 150.432C227.128 149.478 227.388 148.751 227.287 148.415C229.943 138.329 235.235 117.37 235.154 114.223C235.074 111.077 237.003 104.776 237.978 102.019C239.996 96.2032 243.485 82.1298 241.307 72.3666C239.128 62.6033 234.213 60.4314 232.028 60.5659C206.107 63.6926 207.317 87.6973 204.493 94.1523C202.234 99.3164 197.298 124.343 195.113 136.211C193.465 144.347 189.142 162.899 185.027 172.016C180.912 181.134 177.933 195.92 176.958 202.173L174.437 209.738C174.437 219.501 167.78 238.685 164.451 247.056C163.779 242.988 162.838 233.319 164.451 227.187C166.469 219.521 165.662 209.032 164.451 202.173C163.241 195.315 165.46 189.667 169.293 169.596C173.125 149.525 167.477 143.271 163.544 139.338C159.61 135.404 151.541 133.891 143.977 150.634C137.925 164.028 135.874 179.682 135.605 185.834C136.143 188.692 136.231 197.473 132.277 209.738C128.323 222.003 128.478 232.465 129.049 236.163L123.3 266.119L113.013 301.016C111.533 306.866 108.837 320.422 109.886 327.845C110.935 335.268 109.449 351.783 108.575 359.112C107.398 367.113 105.751 387.917 108.575 407.121C111.399 426.325 109.752 434.622 108.575 436.371C95.8262 501.244 31.7195 598.554 1.25977 639.099H184.321L231.019 541.366C242.638 506.831 261.143 494.634 268.942 492.852C284.031 484.299 292.779 471.537 295.267 466.225C301.823 453.483 316.891 424.913 324.718 412.568C334.501 397.136 337.326 379.889 337.83 376.056C338.334 372.224 343.982 357.195 346.907 353.06C349.247 349.752 355.615 336.418 358.506 330.165C361.196 326.467 366.514 318.163 366.272 314.532C366.03 310.901 367.853 304.815 368.794 302.227C373.837 290.527 372.021 290.426 372.021 286.19C372.021 281.954 384.125 263.295 385.133 260.168C386.142 257.041 382.309 248.872 369.5 246.451C356.691 244.03 345.596 258.453 335.712 271.263C327.804 281.51 326.096 287.165 326.231 288.711C321.954 291.455 321.222 297.587 321.39 300.31C317.275 304.506 317.053 309.052 317.456 310.8C315.923 312.172 312.581 319.171 311.102 322.5C310.362 324.618 308.641 328.874 307.673 328.955C306.462 329.055 305.252 313.12 305.958 311.909C306.523 310.941 305.723 297.184 305.252 290.426C303.316 277.677 304.445 262.925 305.252 257.142C304.284 250.607 310.093 224.027 313.119 211.553C316.145 204.426 322.479 186.782 323.609 173.227C325.021 156.282 326.433 153.458 326.735 146.801C327.038 140.145 331.173 127.134 336.216 109.786C340.25 95.9073 339.78 84.3017 339.04 80.2337C338.906 75.426 335.55 65.8107 323.205 65.8107C307.774 65.8107 303.739 82.6543 299.806 95.0601C296.659 104.985 294.998 110.761 294.561 112.408C291.871 125.453 285.605 152.55 282.054 156.585C277.616 161.628 276.608 167.175 273.078 183.111C270.254 195.86 262.555 226.346 259.058 239.996C254.015 248.771 258.05 253.209 255.931 256.134C254.237 258.474 252.805 255.966 252.301 254.419C255.447 250.062 255.293 242.988 254.822 239.996C257.545 195.214 262.286 193.399 266.623 181.901C270.092 172.702 272.372 162.334 273.078 158.299C275.095 137.018 278.121 128.949 279.23 121.687C280.118 115.878 283.702 103.532 285.383 98.0859C286.996 92.0679 290.829 77.1877 293.25 65.8107C296.275 51.5894 294.763 45.2352 294.258 40.1922C293.754 35.1492 286.896 29.1984 280.34 28.089C275.095 27.2014 269.211 30.8795 266.925 32.8294C260.954 36.0569 256.436 57.372 254.923 67.6261C252.368 77.1742 246.37 99.2559 242.82 111.198C238.389 126.101 215.759 198.058 226.26 156.953ZM226.26 156.953C222.069 186.321 211.86 240.881 202.26 249.453" stroke="black" stroke-opacity="0.6" stroke-width="1.25912"/>
<path d="M318.177 105.839C327.645 108.376 331.379 103.909 332.062 101.358C332.437 100.389 348.506 49.0704 333.761 45.1186C318.407 41.0035 308.612 86.5162 307.432 94.7585C306.432 101.746 314.842 105.064 318.177 105.839Z" fill="#D32F2F"/>
<path d="M360.669 280.587C368.39 285.348 373.265 281.764 374.737 279.376C375.401 278.496 407.12 231.006 395.096 223.59C382.574 215.868 361.91 255.133 358.084 263.09C354.84 269.835 357.909 279.028 360.669 280.587Z" fill="#D32F2F"/>
<path d="M273.177 67.837C282.646 70.374 286.535 65.3275 287.296 62.4871C287.701 61.4041 305.35 4.18965 290.605 0.237691C275.251 -3.87745 264.088 46.7379 262.666 55.8875C261.459 63.6438 269.839 67.0748 273.177 67.837Z" fill="#D32F2F"/>
<path d="M222.802 96.0327C231.353 98.3238 234.838 93.867 235.512 91.3521C235.872 90.3938 251.537 39.7473 238.221 36.1784C224.355 32.4622 214.512 77.2868 213.269 85.3922C212.216 92.2634 219.788 95.3422 222.802 96.0327Z" fill="#D32F2F"/>
<path d="M153.067 164.315C158.998 165.904 161.43 162.759 161.904 160.989C162.157 160.313 173.167 124.644 163.931 122.169C154.314 119.591 147.361 151.15 146.476 156.855C145.727 161.691 150.976 163.837 153.067 164.315Z" fill="#D32F2F"/>
<path d="M494.489 105.839C485.021 108.376 481.287 103.909 480.604 101.358C480.229 100.389 464.16 49.0704 478.905 45.1186C494.259 41.0035 504.054 86.5162 505.234 94.7585C506.234 101.746 497.824 105.064 494.489 105.839Z" fill="#D32F2F"/>
<path d="M451.999 280.587C444.278 285.348 439.403 281.764 437.931 279.376C437.267 278.496 405.547 231.006 417.572 223.59C430.094 215.868 450.758 255.133 454.584 263.09C457.828 269.835 454.759 279.028 451.999 280.587Z" fill="#D32F2F"/>
<path d="M539.489 67.837C530.021 70.374 526.131 65.3275 525.37 62.4871C524.965 61.4041 507.316 4.18965 522.061 0.237691C537.415 -3.87745 548.578 46.7379 550 55.8875C551.207 63.6438 542.827 67.0748 539.489 67.837Z" fill="#D32F2F"/>
<path d="M589.864 96.0327C581.313 98.3238 577.828 93.867 577.154 91.3521C576.794 90.3938 561.129 39.7473 574.445 36.1784C588.311 32.4622 598.154 77.2868 599.397 85.3922C600.45 92.2634 592.878 95.3422 589.864 96.0327Z" fill="#D32F2F"/>
<path d="M659.599 164.315C653.668 165.904 651.236 162.759 650.762 160.989C650.509 160.313 639.499 124.644 648.735 122.169C658.353 119.591 665.305 151.15 666.19 156.855C666.939 161.691 661.69 163.837 659.599 164.315Z" fill="#D32F2F"/>
</svg>
