<svg width="813" height="632" viewBox="0 0 813 632" fill="none" xmlns="http://www.w3.org/2000/svg">
<path d="M586.261 149C586.244 148.933 585.654 142.547 585.637 142.479C585.393 141.525 585.132 140.798 585.233 140.462C582.577 130.376 577.286 109.417 577.366 106.27C577.447 103.124 575.517 96.8231 574.542 94.0663C572.525 88.25 569.035 74.1767 571.214 64.4134C573.392 54.6502 578.308 52.4783 580.493 52.6128C606.414 55.7395 605.204 79.7442 608.028 86.1992C610.287 91.3632 615.222 116.39 617.408 128.258C619.055 136.394 623.379 154.945 627.494 164.063C631.609 173.181 634.588 187.967 635.562 194.22L638.084 201.785C638.084 211.548 644.741 230.732 648.069 239.103C648.742 235.035 649.683 225.366 648.069 219.234C646.052 211.568 646.859 201.079 648.069 194.22C649.279 187.362 647.061 181.714 643.228 161.643C639.395 141.571 645.043 135.318 648.977 131.385C652.91 127.451 660.979 125.938 668.544 142.681C674.595 156.075 676.646 171.729 676.915 177.881C676.377 180.739 676.29 189.52 680.243 201.785C684.197 214.049 684.043 224.512 683.471 228.21L689.22 258.166L699.508 293.063C700.987 298.913 703.683 312.469 702.634 319.892C701.585 327.315 703.071 343.829 703.946 351.159C705.122 359.16 706.77 379.964 703.946 399.168C701.122 418.372 702.769 426.669 703.946 428.417C716.694 493.291 780.801 590.6 811.261 631.146H628.2L581.501 533.413C569.882 498.878 551.378 486.681 543.578 484.899C528.489 476.346 519.741 463.584 517.254 458.272C510.698 445.53 495.629 416.96 487.802 404.615C478.019 389.183 475.195 371.936 474.691 368.103C474.186 364.27 468.538 349.242 465.613 345.107C463.273 341.799 456.906 328.465 454.014 322.212C451.325 318.514 446.006 310.209 446.248 306.579C446.49 302.948 444.668 296.862 443.727 294.274C438.684 282.574 440.499 282.473 440.499 278.237C440.499 274.001 428.396 255.342 427.387 252.215C426.379 249.088 430.211 240.919 443.021 238.498C455.83 236.077 466.924 250.5 476.809 263.31C484.716 273.557 486.424 279.212 486.29 280.758C490.566 283.502 491.299 289.634 491.131 292.357C495.246 296.553 495.468 301.098 495.064 302.847C496.597 304.218 499.939 311.218 501.419 314.546C502.158 316.665 503.88 320.921 504.848 321.001C506.058 321.102 507.268 305.166 506.562 303.956C505.998 302.988 506.798 289.231 507.268 282.473C509.205 269.724 508.075 254.972 507.268 249.189C508.237 242.653 502.427 216.073 499.401 203.6C496.376 196.473 490.042 178.829 488.912 165.274C487.5 148.329 486.088 145.505 485.785 138.848C485.483 132.191 481.347 119.18 476.304 101.833C472.27 87.9542 472.741 76.3486 473.48 72.2805C473.615 67.4729 476.97 57.8575 489.315 57.8575C504.747 57.8575 508.781 74.7012 512.715 87.107C515.862 97.0316 517.523 102.808 517.96 104.455C520.649 117.499 526.916 144.597 530.466 148.632C534.904 153.675 535.913 159.222 539.443 175.158C542.267 187.907 549.966 218.393 553.462 232.043C558.505 240.818 554.471 245.256 556.589 248.181C558.283 250.52 559.716 248.012 560.22 246.466C557.073 242.109 557.228 235.035 557.699 232.043C554.975 187.261 550.235 185.446 545.898 173.947C542.428 164.749 540.149 154.381 539.443 150.346C537.426 129.065 534.4 120.996 533.29 113.734C532.403 107.924 528.819 95.5792 527.138 90.1328C525.524 84.1148 521.691 69.2346 519.271 57.8575C516.245 43.6363 517.758 37.2821 518.262 32.2391C518.767 27.1961 525.625 21.2453 532.181 20.1359C537.426 19.2483 543.309 22.9263 545.595 24.8763C551.566 28.1038 556.085 49.4189 557.598 59.673C560.153 69.2211 566.151 91.3027 569.701 103.245C574.131 118.148 596.761 190.105 586.261 149ZM586.261 149C590.452 178.368 600.661 232.928 610.261 241.5" stroke="black" stroke-opacity="0.6" stroke-width="1.25912"/>
<path d="M613.468 481.143C629.283 490.099 628.126 495.431 625.571 496.978C622.989 514.164 645.272 537.423 656.737 546.904C664.563 545.613 667.125 549.795 667.428 552.047C686.289 576.456 681.548 587.147 684.171 597.434C686.269 605.665 682.221 623.053 679.935 630.718H712.008C717.757 590.576 703.637 565.764 696.274 554.872C690.384 546.157 681.044 524.546 677.11 514.83C643.827 483.866 634.548 491.834 631.522 491.834C629.101 491.834 624.932 486.858 623.15 484.37C624.441 474.284 617.233 471.494 613.468 471.359C619.842 477.492 619.687 480.437 618.813 481.143C614.537 479.852 613.468 480.605 613.468 481.143Z" fill="#3C4244" stroke="#535B5E" stroke-width="0.629562"/>
<path d="M750.617 610.018C728.033 601.658 723.667 620.335 724.307 630.718H744.792C744.894 627.905 746.627 626.464 747.48 626.096C752.806 622.398 759.814 627.637 762.652 630.718H777.503C769.821 618.539 756.378 611.844 750.617 610.018Z" fill="#3C4244" stroke="#535B5E" stroke-width="0.629562"/>
<path d="M226.261 149C226.278 148.933 226.867 142.547 226.885 142.479C227.129 141.525 227.389 140.798 227.288 140.462C229.944 130.376 235.236 109.417 235.155 106.27C235.075 103.124 237.004 96.8231 237.979 94.0663C239.997 88.25 243.486 74.1767 241.308 64.4134C239.129 54.6502 234.214 52.4783 232.029 52.6128C206.108 55.7395 207.318 79.7442 204.494 86.1992C202.235 91.3632 197.299 116.39 195.114 128.258C193.466 136.394 189.143 154.945 185.028 164.063C180.913 173.181 177.934 187.967 176.959 194.22L174.438 201.785C174.438 211.548 167.781 230.732 164.452 239.103C163.78 235.035 162.839 225.366 164.452 219.234C166.47 211.568 165.663 201.079 164.452 194.22C163.242 187.362 165.461 181.714 169.294 161.643C173.126 141.571 167.478 135.318 163.545 131.385C159.611 127.451 151.542 125.938 143.978 142.681C137.926 156.075 135.875 171.729 135.606 177.881C136.144 180.739 136.232 189.52 132.278 201.785C128.324 214.049 128.479 224.512 129.05 228.21L123.301 258.166L113.014 293.063C111.534 298.913 108.838 312.469 109.887 319.892C110.936 327.315 109.45 343.829 108.576 351.159C107.399 359.16 105.752 379.964 108.576 399.168C111.4 418.372 109.753 426.669 108.576 428.417C95.8272 493.291 31.7205 590.6 1.26074 631.146H184.322L231.02 533.413C242.639 498.878 261.144 486.681 268.943 484.899C284.032 476.346 292.78 463.584 295.268 458.272C301.824 445.53 316.892 416.96 324.719 404.615C334.502 389.183 337.327 371.936 337.831 368.103C338.335 364.27 343.983 349.242 346.908 345.107C349.248 341.799 355.616 328.465 358.507 322.212C361.197 318.514 366.515 310.209 366.273 306.579C366.031 302.948 367.854 296.862 368.795 294.274C373.838 282.574 372.022 282.473 372.022 278.237C372.022 274.001 384.126 255.342 385.134 252.215C386.143 249.088 382.31 240.919 369.501 238.498C356.692 236.077 345.597 250.5 335.713 263.31C327.805 273.557 326.097 279.212 326.232 280.758C321.955 283.502 321.223 289.634 321.391 292.357C317.276 296.553 317.054 301.098 317.457 302.847C315.924 304.218 312.582 311.218 311.103 314.546C310.363 316.665 308.642 320.921 307.674 321.001C306.463 321.102 305.253 305.166 305.959 303.956C306.524 302.988 305.724 289.231 305.253 282.473C303.317 269.724 304.446 254.972 305.253 249.189C304.285 242.653 310.094 216.073 313.12 203.6C316.146 196.473 322.48 178.829 323.61 165.274C325.022 148.329 326.434 145.505 326.736 138.848C327.039 132.191 331.174 119.18 336.217 101.833C340.251 87.9542 339.781 76.3486 339.041 72.2805C338.907 67.4729 335.551 57.8575 323.206 57.8575C307.775 57.8575 303.74 74.7012 299.807 87.107C296.66 97.0316 294.999 102.808 294.562 104.455C291.872 117.499 285.605 144.597 282.055 148.632C277.617 153.675 276.609 159.222 273.079 175.158C270.255 187.907 262.556 218.393 259.059 232.043C254.016 240.818 258.051 245.256 255.932 248.181C254.238 250.52 252.806 248.012 252.301 246.466C255.448 242.109 255.294 235.035 254.823 232.043C257.546 187.261 262.287 185.446 266.624 173.947C270.093 164.749 272.373 154.381 273.079 150.346C275.096 129.065 278.122 120.996 279.231 113.734C280.119 107.924 283.703 95.5792 285.384 90.1328C286.997 84.1148 290.83 69.2346 293.251 57.8575C296.276 43.6363 294.764 37.2821 294.259 32.2391C293.755 27.1961 286.896 21.2453 280.341 20.1359C275.096 19.2483 269.212 22.9263 266.926 24.8763C260.955 28.1038 256.437 49.4189 254.924 59.673C252.369 69.2211 246.371 91.3027 242.821 103.245C238.39 118.148 215.76 190.105 226.261 149ZM226.261 149C222.07 178.368 211.861 232.928 202.261 241.5" stroke="black" stroke-opacity="0.6" stroke-width="1.25912"/>
<path d="M318.178 97.8868C327.646 100.424 331.011 97.3324 331.51 95.4696C331.813 94.7691 344.132 57.4452 329.387 53.4936C314.033 49.3787 307.483 82.7808 306.88 88.8699C306.369 94.0318 314.85 97.0821 318.178 97.8868Z" fill="#D32F2F"/>
<path d="M361.152 272.933C369.23 277.915 373.236 275.94 374.228 274.33C374.708 273.756 396.754 242.138 384.173 234.379C371.072 226.3 358.094 253.367 355.805 258.912C353.865 263.613 358.289 271.264 361.152 272.933Z" fill="#D32F2F"/>
<path d="M273.178 59.8867C282.646 62.4237 286.03 59.2629 286.538 57.3655C286.844 56.6514 299.353 18.622 284.608 14.6703C269.254 10.5555 262.54 44.5681 261.908 50.7658C261.372 56.0198 269.85 59.0835 273.178 59.8867Z" fill="#D32F2F"/>
<path d="M222.802 88.0829C231.353 90.374 234.369 87.6692 234.808 86.0303C235.076 85.4148 245.965 52.5927 232.649 49.0241C218.783 45.3082 213.073 74.7075 212.565 80.0704C212.134 84.6167 219.798 87.3543 222.802 88.0829Z" fill="#D32F2F"/>
<path d="M153.068 156.363C158.999 157.952 161.184 155.73 161.535 154.42C161.739 153.925 170.235 127.637 160.999 125.162C151.382 122.584 146.604 146.024 146.107 150.286C145.685 153.899 150.983 155.865 153.068 156.363Z" fill="#D32F2F"/>
<path d="M494.045 97.8868C484.577 100.424 481.212 97.3324 480.712 95.4696C480.41 94.7691 468.09 57.4452 482.836 53.4936C498.19 49.3787 504.74 82.7808 505.343 88.8699C505.854 94.0318 497.372 97.0821 494.045 97.8868Z" fill="#D32F2F"/>
<path d="M451.071 272.933C442.992 277.915 438.987 275.94 437.994 274.33C437.515 273.756 415.469 242.138 428.05 234.379C441.15 226.3 454.129 253.367 456.417 258.912C458.358 263.613 453.934 271.264 451.071 272.933Z" fill="#D32F2F"/>
<path d="M539.045 59.8867C529.577 62.4237 526.193 59.2629 525.684 57.3655C525.378 56.6514 512.87 18.622 527.615 14.6703C542.969 10.5555 549.683 44.5681 550.315 50.7658C550.85 56.0198 542.372 59.0835 539.045 59.8867Z" fill="#D32F2F"/>
<path d="M589.42 88.0829C580.87 90.374 577.854 87.6692 577.415 86.0303C577.146 85.4148 566.258 52.5927 579.574 49.0241C593.44 45.3082 599.15 74.7075 599.658 80.0704C600.088 84.6167 592.424 87.3543 589.42 88.0829Z" fill="#D32F2F"/>
<path d="M659.154 156.363C653.224 157.952 651.039 155.73 650.688 154.42C650.484 153.925 641.987 127.637 651.223 125.162C660.841 122.584 665.618 146.024 666.116 150.286C666.538 153.899 661.24 155.865 659.154 156.363Z" fill="#D32F2F"/>
</svg>
