<svg width="813" height="632" viewBox="0 0 813 632" fill="none" xmlns="http://www.w3.org/2000/svg">
<path d="M586.26 149C586.243 148.933 585.653 142.547 585.636 142.479C585.392 141.525 585.131 140.798 585.232 140.462C582.576 130.376 577.285 109.417 577.365 106.27C577.446 103.124 575.516 96.8231 574.541 94.0663C572.524 88.25 569.034 74.1767 571.213 64.4134C573.391 54.6502 578.307 52.4783 580.492 52.6128C606.413 55.7395 605.203 79.7442 608.027 86.1992C610.286 91.3632 615.221 116.39 617.407 128.258C619.054 136.394 623.378 154.945 627.493 164.063C631.608 173.181 634.587 187.967 635.562 194.22L638.083 201.785C638.083 211.548 644.74 230.732 648.068 239.103C648.741 235.035 649.682 225.366 648.068 219.234C646.051 211.568 646.858 201.079 648.068 194.22C649.278 187.362 647.06 181.714 643.227 161.643C639.394 141.571 645.042 135.318 648.976 131.385C652.909 127.451 660.978 125.938 668.543 142.681C674.594 156.075 676.645 171.729 676.914 177.881C676.376 180.739 676.289 189.52 680.243 201.785C684.196 214.049 684.042 224.512 683.47 228.21L689.219 258.166L699.507 293.063C700.986 298.913 703.682 312.469 702.633 319.892C701.585 327.315 703.071 343.829 703.945 351.159C705.121 359.16 706.769 379.964 703.945 399.168C701.121 418.372 702.768 426.669 703.945 428.417C716.693 493.291 780.8 590.6 811.26 631.146H628.199L581.501 533.413C569.881 498.878 551.377 486.681 543.577 484.899C528.488 476.346 519.741 463.584 517.253 458.272C510.697 445.53 495.628 416.96 487.801 404.615C478.018 389.183 475.194 371.936 474.69 368.103C474.185 364.27 468.537 349.242 465.612 345.107C463.272 341.799 456.905 328.465 454.013 322.212C451.324 318.514 446.005 310.209 446.247 306.579C446.489 302.948 444.667 296.862 443.726 294.274C438.683 282.574 440.498 282.473 440.498 278.237C440.498 274.001 428.395 255.342 427.386 252.215C426.378 249.088 430.21 240.919 443.02 238.498C455.829 236.077 466.923 250.5 476.808 263.31C484.715 273.557 486.423 279.212 486.289 280.758C490.565 283.502 491.298 289.634 491.13 292.357C495.245 296.553 495.467 301.098 495.063 302.847C496.596 304.218 499.938 311.218 501.418 314.546C502.157 316.665 503.879 320.921 504.847 321.001C506.057 321.102 507.267 305.166 506.561 303.956C505.997 302.988 506.797 289.231 507.267 282.473C509.204 269.724 508.074 254.972 507.267 249.189C508.236 242.653 502.426 216.073 499.4 203.6C496.375 196.473 490.041 178.829 488.911 165.274C487.499 148.329 486.087 145.505 485.784 138.848C485.482 132.191 481.346 119.18 476.303 101.833C472.269 87.9542 472.74 76.3486 473.479 72.2805C473.614 67.4729 476.969 57.8575 489.314 57.8575C504.746 57.8575 508.78 74.7012 512.714 87.107C515.861 97.0316 517.522 102.808 517.959 104.455C520.648 117.499 526.915 144.597 530.465 148.632C534.903 153.675 535.912 159.222 539.442 175.158C542.266 187.907 549.965 218.393 553.461 232.043C558.504 240.818 554.47 245.256 556.588 248.181C558.283 250.52 559.715 248.012 560.219 246.466C557.072 242.109 557.227 235.035 557.698 232.043C554.974 187.261 550.234 185.446 545.897 173.947C542.427 164.749 540.148 154.381 539.442 150.346C537.425 129.065 534.399 120.996 533.289 113.734C532.402 107.924 528.818 95.5792 527.137 90.1328C525.523 84.1148 521.69 69.2346 519.27 57.8575C516.244 43.6363 517.757 37.2821 518.261 32.2391C518.766 27.1961 525.624 21.2453 532.18 20.1359C537.425 19.2483 543.308 22.9263 545.594 24.8763C551.565 28.1038 556.084 49.4189 557.597 59.673C560.152 69.2211 566.15 91.3027 569.7 103.245C574.131 118.148 596.76 190.105 586.26 149ZM586.26 149C590.451 178.368 600.66 232.928 610.26 241.5" stroke="black" stroke-opacity="0.6" stroke-width="1.25912"/>
<path d="M613.467 481.143C629.282 490.099 628.125 495.431 625.57 496.978C622.988 514.164 645.271 537.423 656.736 546.904C664.563 545.613 667.124 549.795 667.427 552.047C686.288 576.456 681.547 587.147 684.17 597.434C686.268 605.665 682.22 623.053 679.934 630.718H712.007C717.756 590.576 703.636 565.764 696.273 554.872C690.383 546.157 681.043 524.546 677.11 514.83C643.826 483.866 634.547 491.834 631.521 491.834C629.1 491.834 624.931 486.858 623.149 484.37C624.44 474.284 617.232 471.494 613.467 471.359C619.841 477.492 619.687 480.437 618.812 481.143C614.536 479.852 613.467 480.605 613.467 481.143Z" fill="#3C4244" stroke="#535B5E" stroke-width="0.629562"/>
<path d="M750.616 610.018C728.032 601.658 723.666 620.335 724.306 630.718H744.791C744.893 627.905 746.626 626.464 747.479 626.096C752.805 622.398 759.813 627.637 762.651 630.718H777.502C769.82 618.539 756.377 611.844 750.616 610.018Z" fill="#3C4244" stroke="#535B5E" stroke-width="0.629562"/>
<path d="M226.26 149C226.277 148.933 226.866 142.547 226.884 142.479C227.128 141.525 227.388 140.798 227.287 140.462C229.943 130.376 235.235 109.417 235.154 106.27C235.074 103.124 237.003 96.8231 237.978 94.0663C239.996 88.25 243.485 74.1767 241.307 64.4134C239.128 54.6502 234.213 52.4783 232.028 52.6128C206.107 55.7395 207.317 79.7442 204.493 86.1992C202.234 91.3632 197.298 116.39 195.113 128.258C193.465 136.394 189.142 154.945 185.027 164.063C180.912 173.181 177.933 187.967 176.958 194.22L174.437 201.785C174.437 211.548 167.78 230.732 164.451 239.103C163.779 235.035 162.838 225.366 164.451 219.234C166.469 211.568 165.662 201.079 164.451 194.22C163.241 187.362 165.46 181.714 169.293 161.643C173.125 141.571 167.477 135.318 163.544 131.385C159.61 127.451 151.541 125.938 143.977 142.681C137.925 156.075 135.874 171.729 135.605 177.881C136.143 180.739 136.231 189.52 132.277 201.785C128.323 214.049 128.478 224.512 129.049 228.21L123.3 258.166L113.013 293.063C111.533 298.913 108.837 312.469 109.886 319.892C110.935 327.315 109.449 343.829 108.575 351.159C107.398 359.16 105.751 379.964 108.575 399.168C111.399 418.372 109.752 426.669 108.575 428.417C95.8262 493.291 31.7195 590.6 1.25977 631.146H184.321L231.019 533.413C242.638 498.878 261.143 486.681 268.942 484.899C284.031 476.346 292.779 463.584 295.267 458.272C301.823 445.53 316.891 416.96 324.718 404.615C334.501 389.183 337.326 371.936 337.83 368.103C338.334 364.27 343.982 349.242 346.907 345.107C349.247 341.799 355.615 328.465 358.506 322.212C361.196 318.514 366.514 310.209 366.272 306.579C366.03 302.948 367.853 296.862 368.794 294.274C373.837 282.574 372.021 282.473 372.021 278.237C372.021 274.001 384.125 255.342 385.133 252.215C386.142 249.088 382.309 240.919 369.5 238.498C356.691 236.077 345.596 250.5 335.712 263.31C327.804 273.557 326.096 279.212 326.231 280.758C321.954 283.502 321.222 289.634 321.39 292.357C317.275 296.553 317.053 301.098 317.456 302.847C315.923 304.218 312.581 311.218 311.102 314.546C310.362 316.665 308.641 320.921 307.673 321.001C306.462 321.102 305.252 305.166 305.958 303.956C306.523 302.988 305.723 289.231 305.252 282.473C303.316 269.724 304.445 254.972 305.252 249.189C304.284 242.653 310.093 216.073 313.119 203.6C316.145 196.473 322.479 178.829 323.609 165.274C325.021 148.329 326.433 145.505 326.735 138.848C327.038 132.191 331.173 119.18 336.216 101.833C340.25 87.9542 339.78 76.3486 339.04 72.2805C338.906 67.4729 335.55 57.8575 323.205 57.8575C307.774 57.8575 303.739 74.7012 299.806 87.107C296.659 97.0316 294.998 102.808 294.561 104.455C291.871 117.499 285.605 144.597 282.054 148.632C277.616 153.675 276.608 159.222 273.078 175.158C270.254 187.907 262.555 218.393 259.058 232.043C254.015 240.818 258.05 245.256 255.931 248.181C254.237 250.52 252.805 248.012 252.301 246.466C255.447 242.109 255.293 235.035 254.822 232.043C257.545 187.261 262.286 185.446 266.623 173.947C270.092 164.749 272.372 154.381 273.078 150.346C275.095 129.065 278.121 120.996 279.23 113.734C280.118 107.924 283.702 95.5792 285.383 90.1328C286.996 84.1148 290.829 69.2346 293.25 57.8575C296.275 43.6363 294.763 37.2821 294.258 32.2391C293.754 27.1961 286.896 21.2453 280.34 20.1359C275.095 19.2483 269.211 22.9263 266.925 24.8763C260.954 28.1038 256.436 49.4189 254.923 59.673C252.368 69.2211 246.37 91.3027 242.82 103.245C238.389 118.148 215.759 190.105 226.26 149ZM226.26 149C222.069 178.368 211.86 232.928 202.26 241.5" stroke="black" stroke-opacity="0.6" stroke-width="1.25912"/>
<path d="M317.284 93.1677C308.614 91.1006 307.221 87.337 307.608 85.7136C307.633 85.4114 308.803 78.2804 311.456 70.8699C313.469 65.2499 313.184 65.6176 318.473 54.2385C318.668 53.4187 325.618 55.0755 326.73 55.3406L326.732 55.3412C328.771 55.8272 334.514 57.1966 334.923 57.9442C335.207 65.3786 335.288 69.2657 334.186 76.1857C333.119 82.8831 331.041 89.0414 330.162 91.0909C328.39 95.2217 320.294 93.9599 317.284 93.1677Z" fill="#D32F2F"/>
<path d="M360.558 273.071C353.25 267.969 354.804 260.983 355.759 259.615C355.893 259.343 358.126 256.111 363.312 250.19C367.245 245.699 366.845 245.936 375.938 237.289C376.42 236.598 382.278 240.688 383.216 241.342L383.218 241.344C384.936 242.543 389.777 245.923 389.883 246.768C387.422 253.789 386.072 257.435 382.509 263.469C379.061 269.309 374.87 274.277 373.3 275.861C370.137 279.054 363.068 274.912 360.558 273.071Z" fill="#D32F2F"/>
<path d="M272.095 57.5525C263.425 55.4854 262.031 51.7218 262.419 50.0984C262.443 49.7962 263.613 42.6651 266.267 35.2547C268.279 29.6347 267.994 30.0024 273.284 18.6232C273.479 17.8035 280.429 19.4603 281.541 19.7254L281.543 19.726C283.581 20.212 289.324 21.5814 289.733 22.329C290.018 29.7633 290.098 33.6505 288.996 40.5704C287.93 47.2679 285.852 53.4261 284.973 55.4757C283.2 59.6064 275.105 58.3447 272.095 57.5525Z" fill="#D32F2F"/>
<path d="M220.901 88.0367C212.663 86.0726 211.378 82.3348 211.765 80.7114C211.791 80.4097 212.987 73.2846 215.598 65.8642C217.579 60.2366 217.303 60.6065 222.471 49.1984C222.667 48.3787 229.27 49.9529 230.326 50.2048L230.329 50.2054C232.265 50.6671 237.722 51.9683 238.104 52.7093C238.291 60.1205 238.324 63.9964 237.196 70.9101C236.105 77.6016 234.056 83.7667 233.195 85.8207C231.459 89.9603 223.76 88.7929 220.901 88.0367Z" fill="#D32F2F"/>
<path d="M153.847 154.876C147.882 153.454 147.008 150.509 147.316 149.214C147.341 148.974 148.329 143.3 150.353 137.368C151.889 132.869 151.682 133.168 155.633 124.029C155.789 123.375 160.571 124.515 161.336 124.697L161.337 124.698C162.74 125.032 166.691 125.974 166.956 126.556C166.97 132.434 166.93 135.51 165.994 141.015C165.089 146.343 163.495 151.269 162.834 152.914C161.502 156.228 155.916 155.429 153.847 154.876Z" fill="#D32F2F"/>
<path d="M495.298 93.1677C503.968 91.1006 505.361 87.337 504.974 85.7136C504.949 85.4114 503.779 78.2804 501.126 70.8699C499.113 65.2499 499.398 65.6176 494.109 54.2385C493.914 53.4187 486.964 55.0755 485.852 55.3406L485.85 55.3412C483.811 55.8272 478.068 57.1966 477.659 57.9442C477.375 65.3786 477.294 69.2657 478.396 76.1857C479.463 82.8831 481.541 89.0414 482.42 91.0909C484.192 95.2217 492.288 93.9599 495.298 93.1677Z" fill="#D32F2F"/>
<path d="M452.024 273.071C459.332 267.969 457.778 260.983 456.823 259.615C456.689 259.343 454.456 256.111 449.27 250.19C445.337 245.699 445.738 245.936 436.644 237.289C436.162 236.598 430.304 240.688 429.366 241.342L429.364 241.344C427.646 242.543 422.805 245.923 422.699 246.768C425.16 253.789 426.51 257.435 430.073 263.469C433.521 269.309 437.712 274.277 439.282 275.861C442.445 279.054 449.514 274.912 452.024 273.071Z" fill="#D32F2F"/>
<path d="M540.487 57.5525C549.157 55.4854 550.551 51.7218 550.163 50.0984C550.139 49.7962 548.969 42.6651 546.315 35.2547C544.303 29.6347 544.588 30.0024 539.299 18.6232C539.103 17.8035 532.153 19.4603 531.041 19.7254L531.039 19.726C529.001 20.212 523.258 21.5814 522.849 22.329C522.564 29.7633 522.484 33.6505 523.586 40.5704C524.652 47.2679 526.73 53.4261 527.61 55.4757C529.382 59.6064 537.477 58.3447 540.487 57.5525Z" fill="#D32F2F"/>
<path d="M591.681 88.0367C599.919 86.0726 601.205 82.3348 600.817 80.7114C600.791 80.4097 599.595 73.2846 596.984 65.8642C595.003 60.2366 595.279 60.6065 590.111 49.1984C589.916 48.3787 583.312 49.9529 582.256 50.2048L582.253 50.2054C580.317 50.6671 574.86 51.9683 574.478 52.7093C574.291 60.1205 574.258 63.9964 575.386 70.9101C576.477 77.6016 578.526 83.7667 579.387 85.8207C581.123 89.9603 588.822 88.7929 591.681 88.0367Z" fill="#D32F2F"/>
<path d="M658.735 154.876C664.7 153.454 665.574 150.509 665.266 149.214C665.241 148.974 664.253 143.3 662.229 137.368C660.693 132.869 660.9 133.168 656.949 124.029C656.793 123.375 652.011 124.515 651.246 124.697L651.245 124.698C649.843 125.032 645.891 125.974 645.626 126.556C645.612 132.434 645.652 135.51 646.588 141.015C647.493 146.343 649.087 151.269 649.748 152.914C651.08 156.228 656.666 155.429 658.735 154.876Z" fill="#D32F2F"/>
</svg>
