<svg width="407" height="75" viewBox="0 0 407 75" fill="none" xmlns="http://www.w3.org/2000/svg">
<path d="M3.98872 20H23.4887H69.4888L68.9888 73C50.6554 73.5 12.8888 74.4 8.48877 74C4.08877 73.6 5.65544 69.1667 6.98877 67L17.9888 46.5C13.9888 41.8333 5.08872 31.3 1.48872 26.5C-2.11128 21.7 1.65539 20.1667 3.98872 20Z" fill="#C6AD49"/>
<path d="M402.5 20H383H337L337.5 73C355.833 73.5 393.6 74.4 398 74C402.4 73.6 400.833 69.1667 399.5 67L388.5 46.5C392.5 41.8333 401.4 31.3 405 26.5C408.6 21.7 404.833 20.1667 402.5 20Z" fill="#C6AD49"/>
<path d="M69 73.5L29.5 62.5H69V73.5Z" fill="#B29C46"/>
<path d="M69 73.5L29.5 62.5H69V73.5Z" fill="#B29C46"/>
<path d="M337.489 73.5L376.989 62.5H337.489V73.5Z" fill="#B29C46"/>
<path d="M23.24 2.21543C23.1119 1.03251 24.0386 0 25.2284 0H381.772C382.961 0 383.888 1.03251 383.76 2.21543L377.368 61.2154C377.258 62.2307 376.401 63 375.379 63H31.6207C30.5995 63 29.7423 62.2307 29.6323 61.2154L23.24 2.21543Z" fill="#FEEB47"/>
</svg>
