<svg width="844" height="154" viewBox="0 0 844 154" fill="none" xmlns="http://www.w3.org/2000/svg">
<path d="M8.276 41.497H48.7355H144.179L143.141 151.464C105.102 152.501 26.7422 154.369 17.6129 153.539C8.48358 152.709 11.7342 143.51 14.5006 139.015L37.324 96.4805C29.0245 86.7978 10.5583 64.9428 3.08888 54.9835C-4.38058 45.0242 3.43469 41.8428 8.276 41.497Z" fill="#C6AD49"/>
<path d="M835.126 41.497H794.667H699.224L700.261 151.464C738.3 152.501 816.66 154.369 825.789 153.539C834.919 152.709 831.668 143.51 828.902 139.015L806.078 96.4805C814.378 86.7978 832.844 64.9428 840.313 54.9835C847.783 45.0242 839.968 41.8428 835.126 41.497Z" fill="#C6AD49"/>
<path d="M143.165 152.501L61.208 129.678H143.165V152.501Z" fill="#B29C46"/>
<path d="M143.165 152.501L61.208 129.678H143.165V152.501Z" fill="#B29C46"/>
<path d="M700.238 152.501L782.194 129.678H700.238V152.501Z" fill="#B29C46"/>
<path d="M48.2195 4.59667C47.9535 2.14231 49.8763 0 52.345 0H792.118C794.587 0 796.51 2.14231 796.244 4.59667L782.981 127.013C782.753 129.119 780.974 130.715 778.855 130.715H65.6079C63.4891 130.715 61.7106 129.119 61.4824 127.013L48.2195 4.59667Z" fill="#FEEB47"/>
<path d="M196.85 81.45C196.85 83.35 195 84.6 193.2 84.6C191.9 84.6 190.6 84 189.95 82.55L186 74.05H166.95L163.1 82.55C162.45 84 161.15 84.6 159.85 84.6C158.05 84.6 156.2 83.35 156.2 81.45C156.2 81 156.3 80.5 156.55 80L171.45 47.55C172.4 45.45 174.45 44.4 176.55 44.4C178.6 44.4 180.65 45.45 181.6 47.55L196.5 80C196.75 80.5 196.85 81 196.85 81.45ZM183.05 67.4L176.5 53L169.95 67.4H183.05ZM234.015 73.65C234.015 74.1 233.915 74.55 233.715 75.05C230.815 81.4 225.165 85.15 216.815 85.15C205.065 85.15 197.565 76.5 197.565 64.25C197.565 52.8 205.115 43.85 216.815 43.85C223.815 43.85 229.865 46.85 233.065 53.15C233.265 53.55 233.365 54 233.365 54.4C233.365 56.25 231.415 57.8 229.515 57.8C228.465 57.8 227.415 57.3 226.765 56.15C224.665 52.35 221.065 50.55 216.815 50.55C209.865 50.55 204.515 56.6 204.515 64.25C204.515 72.3 209.415 78.3 216.815 78.3C221.415 78.3 225.565 76 227.515 71.9C228.065 70.7 229.115 70.2 230.215 70.2C232.065 70.2 234.015 71.65 234.015 73.65ZM270.532 79.95C270.532 83 268.032 84.65 265.582 84.65C263.982 84.65 262.382 83.95 261.482 82.5L245.382 56.5V81.75C245.382 85.45 238.432 85.45 238.432 81.75V49.2C238.432 46.05 240.982 44.35 243.432 44.35C245.032 44.35 246.582 45.05 247.482 46.45L263.582 72.4V47.2C263.582 43.4 270.532 43.4 270.532 47.2V79.95ZM310.249 81.85C310.249 85.5 303.249 85.5 303.249 81.85V67.05H284.699V81.85C284.699 85.5 277.699 85.5 277.699 81.85V47.15C277.699 43.45 284.699 43.45 284.699 47.15V60.35H303.249V47.15C303.249 43.45 310.249 43.45 310.249 47.15V81.85ZM327.406 58.15C327.406 60.4 325.706 62.25 323.606 62.25C321.506 62.25 319.806 60.4 319.806 58.15C319.806 55.9 321.506 54.05 323.606 54.05C325.706 54.05 327.406 55.9 327.406 58.15ZM327.406 79.6C327.406 81.85 325.706 83.65 323.606 83.65C321.506 83.65 319.806 81.85 319.806 79.6C319.806 77.35 321.506 75.45 323.606 75.45C325.706 75.45 327.406 77.35 327.406 79.6ZM389.875 81.45C389.875 83.35 388.025 84.6 386.225 84.6C384.925 84.6 383.625 84 382.975 82.55L379.025 74.05H359.975L356.125 82.55C355.475 84 354.175 84.6 352.875 84.6C351.075 84.6 349.225 83.35 349.225 81.45C349.225 81 349.325 80.5 349.575 80L364.475 47.55C365.425 45.45 367.475 44.4 369.575 44.4C371.625 44.4 373.675 45.45 374.625 47.55L389.525 80C389.775 80.5 389.875 81 389.875 81.45ZM376.075 67.4L369.525 53L362.975 67.4H376.075ZM410.513 56.65C410.513 58.3 409.563 59.95 407.913 59.95C407.863 59.95 407.763 59.95 407.663 59.95C407.163 59.85 406.713 59.8 406.213 59.8C402.413 59.8 399.513 62.85 399.513 67.65V81.8C399.513 83.7 397.863 84.6 396.213 84.6C394.513 84.6 392.813 83.6 392.813 81.7V56.25C392.813 54.4 394.563 53.5 396.213 53.5C397.813 53.5 399.363 54.3 399.363 55.75V56.65C400.763 54.5 403.463 53.45 406.313 53.45C406.863 53.45 407.363 53.5 407.913 53.55C409.713 53.7 410.513 55.2 410.513 56.65ZM429.268 80.65C429.268 81.7 428.818 82.8 427.718 83.3C425.718 84.2 423.818 84.65 422.168 84.65C418.268 84.65 415.668 82.3 415.668 77.95V60.15H413.118C411.818 60.15 411.068 58.55 411.068 57.05C411.068 55.55 411.718 54.15 413.118 54.15H415.668V48.15C415.668 44.65 422.368 44.65 422.368 48.15V54.15H426.318C429.218 54.15 429.218 60.15 426.318 60.15H422.368V76.05C422.368 77.55 423.118 78.4 424.768 78.4C425.318 78.4 425.918 78.3 426.668 78.1C426.818 78.05 426.968 78.05 427.118 78.05C428.468 78.05 429.268 79.35 429.268 80.65ZM483.905 73.65C483.905 74.1 483.805 74.55 483.605 75.05C480.705 81.4 475.055 85.15 466.705 85.15C454.955 85.15 447.455 76.5 447.455 64.25C447.455 52.8 455.005 43.85 466.705 43.85C473.705 43.85 479.755 46.85 482.955 53.15C483.155 53.55 483.255 54 483.255 54.4C483.255 56.25 481.305 57.8 479.405 57.8C478.355 57.8 477.305 57.3 476.655 56.15C474.555 52.35 470.955 50.55 466.705 50.55C459.755 50.55 454.405 56.6 454.405 64.25C454.405 72.3 459.305 78.3 466.705 78.3C471.305 78.3 475.455 76 477.405 71.9C477.955 70.7 479.005 70.2 480.105 70.2C481.955 70.2 483.905 71.65 483.905 73.65ZM514.422 81.85C514.422 85.5 507.722 85.5 507.722 81.85V66.55C507.722 62.25 505.772 59.75 502.022 59.75C497.472 59.75 494.522 63.1 494.522 68.15V81.8C494.522 83.7 492.872 84.6 491.222 84.6C489.522 84.6 487.822 83.6 487.822 81.7V47.1C487.822 43.45 494.522 43.45 494.522 47.1V57.2C495.772 54.65 499.172 53.25 502.272 53.25C510.372 53.25 514.422 57.65 514.422 66.4V81.85ZM548.645 67.65C548.645 70.15 547.195 71.75 544.095 71.75H525.945C526.295 75.75 529.895 78.65 534.145 78.65C538.045 78.65 540.595 76.85 541.545 75C542.095 73.9 543.245 73.45 544.395 73.45C546.095 73.45 547.795 74.45 547.795 76.15C547.795 76.5 547.745 76.85 547.595 77.25C545.845 81.65 541.545 84.9 534.195 84.9C525.195 84.9 519.295 78.05 519.295 69.2C519.295 59.45 525.695 53.25 534.145 53.25C541.945 53.25 548.045 59.05 548.645 67.15C548.645 67.3 548.645 67.5 548.645 67.65ZM542.095 65.65C540.895 61.85 538.495 59.3 534.195 59.3C529.695 59.3 526.745 62.3 525.995 65.65H542.095ZM579.966 76.35C579.966 76.85 579.866 77.4 579.566 78C577.416 82.25 572.966 84.9 567.316 84.9C558.266 84.9 552.166 78.1 552.166 69.1C552.166 60.05 558.266 53.25 567.316 53.25C573.166 53.25 576.916 55.95 579.016 59.15C579.516 59.85 579.716 60.55 579.716 61.15C579.716 62.95 577.916 64.25 576.266 64.25C575.366 64.25 574.516 63.9 574.016 63.05C572.816 61.1 570.316 59.65 567.316 59.65C562.216 59.65 558.966 64 558.966 69.1C558.966 74.2 562.216 78.45 567.316 78.45C570.466 78.45 572.916 76.9 574.166 74.65C574.716 73.6 575.666 73.2 576.616 73.2C578.266 73.2 579.966 74.5 579.966 76.35ZM611.312 81.25C611.312 83.05 609.462 84.6 607.662 84.6C606.912 84.6 606.212 84.35 605.612 83.75L591.962 71.55V81.9C591.962 85.5 585.262 85.5 585.262 81.9V47C585.262 43.45 591.962 43.45 591.962 47V63.6L603.712 54.3C604.462 53.7 605.262 53.4 606.012 53.4C607.912 53.4 609.562 55 609.562 56.8C609.562 57.7 609.112 58.65 608.112 59.5L597.362 67.75L610.212 78.9C611.012 79.65 611.312 80.5 611.312 81.25ZM621.376 81.9C621.376 85.5 614.476 85.5 614.476 81.9V47.05C614.476 43.5 621.376 43.5 621.376 47.05V81.9ZM635.313 47.8C635.313 50 633.463 51.8 631.263 51.8C629.063 51.8 627.163 50 627.163 47.8C627.163 45.6 629.063 43.75 631.263 43.75C633.463 43.75 635.313 45.6 635.313 47.8ZM634.663 81.9C634.663 85.5 627.913 85.5 627.913 81.9V56.45C627.913 53.25 634.663 53.25 634.663 56.45V81.9ZM665.253 75.7C665.203 81.35 661.053 84.9 652.453 84.9C645.303 84.9 641.203 81.6 639.803 76.85C639.703 76.55 639.653 76.25 639.653 75.95C639.653 74.3 641.303 73.15 642.853 73.15C643.853 73.15 644.753 73.6 645.203 74.7C646.003 77.2 648.803 79.1 652.453 79.1C656.803 79.1 658.753 77.9 658.853 75.8C658.853 75.7 658.853 75.65 658.853 75.55C658.853 73.85 657.903 72.85 656.053 72.25C653.203 71.3 649.603 70.9 646.453 70C642.503 68.9 640.253 66.3 640.253 62.15C640.253 62.05 640.253 61.95 640.253 61.85C640.353 56.8 645.303 53.25 652.203 53.25C656.653 53.25 659.903 54.4 662.003 56.6C662.903 57.55 663.603 58.7 664.053 60.1C664.153 60.4 664.253 60.7 664.253 60.95C664.253 62.5 662.503 63.7 660.953 63.7C660.053 63.7 659.203 63.3 658.703 62.4C657.803 60.25 655.803 58.9 652.153 58.9C648.253 58.9 646.803 60.25 646.653 61.85C646.653 61.9 646.653 61.95 646.653 62.05C646.653 63 647.403 63.9 648.553 64.3C650.903 65.05 655.353 65.7 658.053 66.45C662.503 67.75 665.253 70.75 665.253 75.55C665.253 75.6 665.253 75.65 665.253 75.7ZM685.466 80.65C685.466 81.7 685.016 82.8 683.916 83.3C681.916 84.2 680.016 84.65 678.366 84.65C674.466 84.65 671.866 82.3 671.866 77.95V60.15H669.316C668.016 60.15 667.266 58.55 667.266 57.05C667.266 55.55 667.916 54.15 669.316 54.15H671.866V48.15C671.866 44.65 678.566 44.65 678.566 48.15V54.15H682.516C685.416 54.15 685.416 60.15 682.516 60.15H678.566V76.05C678.566 77.55 679.316 78.4 680.966 78.4C681.516 78.4 682.116 78.3 682.866 78.1C683.016 78.05 683.166 78.05 683.316 78.05C684.666 78.05 685.466 79.35 685.466 80.65Z" fill="#837858"/>
</svg>
